<svg xmlns="http://www.w3.org/2000/svg" width="1536" height="864" viewBox="0 0 1536 864"><rect width="1536" height="864" fill="#ffffff"/>
<clipPath id="fr"><rect width="1536" height="864"/></clipPath>
<g clip-path="url(#fr)">
<polygon points="902.0,216.8 5383.1,4110.4 25111.0,50825.3 3546.8,50825.3 -671.6,1350.8" fill="#e2e2e2" stroke="#b4b4b4" stroke-width="1" stroke-linejoin="round"/>
<polygon points="902.0,216.8 -671.6,1350.8 -27037.6,11208.7 -9439.1,-5277.8 1374.6,-1884.7" fill="#f4f4f4" stroke="#b4b4b4" stroke-width="1" stroke-linejoin="round"/>
<polygon points="902.0,216.8 5383.1,4110.4 44862.7,32321.8 15835.4,-5277.8 1374.6,-1884.7" fill="#f4f4f4" stroke="#b4b4b4" stroke-width="1" stroke-linejoin="round"/>
<polygon points="-671.6,1350.8 3546.8,50825.3 -27037.6,11208.7" fill="#f4f4f4" stroke="#b4b4b4" stroke-width="1" stroke-linejoin="round"/>
<polygon points="5383.1,4110.4 25111.0,50825.3 44862.7,32321.8" fill="#f4f4f4" stroke="#b4b4b4" stroke-width="1" stroke-linejoin="round"/>
<polygon points="881.5,231.6 773.0,309.7 774.4,172.4 910.7,82.2" fill="#9d9d9d" stroke="#606060" stroke-width="2" stroke-linejoin="round"/>
<polygon points="881.5,231.6 975.0,314.5 1031.8,178.0 910.7,82.2" fill="#9d9d9d" stroke="#606060" stroke-width="2" stroke-linejoin="round"/>
<polygon points="773.0,309.7 865.4,401.3 893.9,281.0 774.4,172.4" fill="#9d9d9d" stroke="#606060" stroke-width="2" stroke-linejoin="round"/>
<polygon points="975.0,314.5 865.4,401.3 893.9,281.0 1031.8,178.0" fill="#9d9d9d" stroke="#606060" stroke-width="2" stroke-linejoin="round"/>
<polygon points="910.7,82.2 1031.8,178.0 893.9,281.0 774.4,172.4" fill="#9d9d9d" stroke="#606060" stroke-width="2" stroke-linejoin="round"/>
<polygon points="672.0,382.5 614.9,423.7 549.3,257.2 632.3,204.4" fill="#606060" stroke="#606060" stroke-width="2" stroke-linejoin="round"/>
<polygon points="672.0,382.5 721.2,436.7 701.0,274.1 632.3,204.4" fill="#606060" stroke="#606060" stroke-width="2" stroke-linejoin="round"/>
<polygon points="614.9,423.7 663.5,480.5 616.6,331.7 549.3,257.2" fill="#606060" stroke="#606060" stroke-width="2" stroke-linejoin="round"/>
<polygon points="721.2,436.7 663.5,480.5 616.6,331.7 701.0,274.1" fill="#606060" stroke="#606060" stroke-width="2" stroke-linejoin="round"/>
<polygon points="632.3,204.4 701.0,274.1 616.6,331.7 549.3,257.2" fill="#606060" stroke="#606060" stroke-width="2" stroke-linejoin="round"/>
<polygon points="1202.0,477.5 1122.2,555.2 1226.5,479.5 1323.0,384.0" fill="#9d9d9d" stroke="#606060" stroke-width="2" stroke-linejoin="round"/>
<polygon points="1202.0,477.5 1493.1,730.4 1732.5,703.3 1323.0,384.0" fill="#9d9d9d" stroke="#606060" stroke-width="2" stroke-linejoin="round"/>
<polygon points="1122.2,555.2 1415.9,831.7 1644.0,838.5 1226.5,479.5" fill="#9d9d9d" stroke="#606060" stroke-width="2" stroke-linejoin="round"/>
<polygon points="1493.1,730.4 1415.9,831.7 1644.0,838.5 1732.5,703.3" fill="#9d9d9d" stroke="#606060" stroke-width="2" stroke-linejoin="round"/>
<polygon points="1323.0,384.0 1732.5,703.3 1644.0,838.5 1226.5,479.5" fill="#9d9d9d" stroke="#606060" stroke-width="2" stroke-linejoin="round"/>
<polygon points="927.1,238.6 848.0,297.0 903.5,-60.5 1030.9,-136.1" fill="#c8c8c8" stroke="#606060" stroke-width="2" stroke-linejoin="round"/>
<polygon points="927.1,238.6 1124.2,409.9 1401.4,96.7 1030.9,-136.1" fill="#c8c8c8" stroke="#606060" stroke-width="2" stroke-linejoin="round"/>
<polygon points="848.0,297.0 1044.4,481.9 1275.5,205.4 903.5,-60.5" fill="#c8c8c8" stroke="#606060" stroke-width="2" stroke-linejoin="round"/>
<polygon points="1124.2,409.9 1044.4,481.9 1275.5,205.4 1401.4,96.7" fill="#c8c8c8" stroke="#606060" stroke-width="2" stroke-linejoin="round"/>
<polygon points="1030.9,-136.1 1401.4,96.7 1275.5,205.4 903.5,-60.5" fill="#c8c8c8" stroke="#606060" stroke-width="2" stroke-linejoin="round"/>
<polygon points="755.8,322.1 684.4,373.6 607.2,-31.5 745.2,-105.2" fill="#606060" stroke="#606060" stroke-width="2" stroke-linejoin="round"/>
<polygon points="755.8,322.1 826.6,393.6 882.0,-1.8 745.2,-105.2" fill="#606060" stroke="#606060" stroke-width="2" stroke-linejoin="round"/>
<polygon points="684.4,373.6 754.3,449.7 740.6,85.1 607.2,-31.5" fill="#606060" stroke="#606060" stroke-width="2" stroke-linejoin="round"/>
<polygon points="826.6,393.6 754.3,449.7 740.6,85.1 882.0,-1.8" fill="#606060" stroke="#606060" stroke-width="2" stroke-linejoin="round"/>
<polygon points="745.2,-105.2 882.0,-1.8 740.6,85.1 607.2,-31.5" fill="#606060" stroke="#606060" stroke-width="2" stroke-linejoin="round"/>
<polygon points="1583.6,809.0 1453.1,997.7 1735.4,1073.9 1882.7,807.7" fill="#9d9d9d" stroke="#606060" stroke-width="2" stroke-linejoin="round"/>
<polygon points="1583.6,809.0 2477.3,1585.6 3459.4,2029.8 1882.7,807.7" fill="#9d9d9d" stroke="#606060" stroke-width="2" stroke-linejoin="round"/>
<polygon points="1453.1,997.7 2403.8,1945.6 3538.8,2731.8 1735.4,1073.9" fill="#9d9d9d" stroke="#606060" stroke-width="2" stroke-linejoin="round"/>
<polygon points="2477.3,1585.6 2403.8,1945.6 3538.8,2731.8 3459.4,2029.8" fill="#9d9d9d" stroke="#606060" stroke-width="2" stroke-linejoin="round"/>
<polygon points="1882.7,807.7 3459.4,2029.8 3538.8,2731.8 1735.4,1073.9" fill="#9d9d9d" stroke="#606060" stroke-width="2" stroke-linejoin="round"/>
<polygon points="-33.9,891.2 40.0,1082.1 -374.5,1235.5 -436.6,930.8" fill="#9d9d9d" stroke="#606060" stroke-width="2" stroke-linejoin="round"/>
<polygon points="-33.9,891.2 -367.0,1131.3 -1034.0,1318.6 -436.6,930.8" fill="#9d9d9d" stroke="#606060" stroke-width="2" stroke-linejoin="round"/>
<polygon points="40.0,1082.1 -316.2,1367.3 -1055.1,1745.5 -374.5,1235.5" fill="#9d9d9d" stroke="#606060" stroke-width="2" stroke-linejoin="round"/>
<polygon points="-367.0,1131.3 -316.2,1367.3 -1055.1,1745.5 -1034.0,1318.6" fill="#9d9d9d" stroke="#606060" stroke-width="2" stroke-linejoin="round"/>
<polygon points="-436.6,930.8 -374.5,1235.5 -1055.1,1745.5 -1034.0,1318.6" fill="#9d9d9d" stroke="#606060" stroke-width="2" stroke-linejoin="round"/>
<polygon points="595.2,437.9 653.6,507.6 500.4,99.0 383.0,-22.3" fill="#c8c8c8" stroke="#606060" stroke-width="2" stroke-linejoin="round"/>
<polygon points="595.2,437.9 455.7,538.4 20.6,156.4 383.0,-22.3" fill="#c8c8c8" stroke="#606060" stroke-width="2" stroke-linejoin="round"/>
<polygon points="653.6,507.6 511.8,616.4 117.4,314.5 500.4,99.0" fill="#c8c8c8" stroke="#606060" stroke-width="2" stroke-linejoin="round"/>
<polygon points="455.7,538.4 511.8,616.4 117.4,314.5 20.6,156.4" fill="#c8c8c8" stroke="#606060" stroke-width="2" stroke-linejoin="round"/>
<polygon points="383.0,-22.3 500.4,99.0 117.4,314.5 20.6,156.4" fill="#c8c8c8" stroke="#606060" stroke-width="2" stroke-linejoin="round"/>
<polygon points="2998.2,2038.2 2993.2,2256.5 3888.4,2837.4 3821.2,2490.5" fill="#606060" stroke="#606060" stroke-width="2" stroke-linejoin="round"/>
<polygon points="2998.2,2038.2 3351.3,2345.0 4426.7,2982.9 3821.2,2490.5" fill="#606060" stroke="#606060" stroke-width="2" stroke-linejoin="round"/>
<polygon points="2993.2,2256.5 3370.7,2606.0 4565.8,3429.6 3888.4,2837.4" fill="#606060" stroke="#606060" stroke-width="2" stroke-linejoin="round"/>
<polygon points="3351.3,2345.0 3370.7,2606.0 4565.8,3429.6 4426.7,2982.9" fill="#606060" stroke="#606060" stroke-width="2" stroke-linejoin="round"/>
<polygon points="3821.2,2490.5 4426.7,2982.9 4565.8,3429.6 3888.4,2837.4" fill="#606060" stroke="#606060" stroke-width="2" stroke-linejoin="round"/>
<polygon points="2018.5,912.9 1988.4,977.3 2402.2,1033.1 2426.9,945.8" fill="#606060" stroke="#606060" stroke-width="2" stroke-linejoin="round"/>
<polygon points="2018.5,912.9 3163.4,1800.4 4412.7,2315.6 2426.9,945.8" fill="#606060" stroke="#606060" stroke-width="2" stroke-linejoin="round"/>
<polygon points="1988.4,977.3 3166.9,1926.5 4495.7,2543.5 2402.2,1033.1" fill="#606060" stroke="#606060" stroke-width="2" stroke-linejoin="round"/>
<polygon points="2426.9,945.8 4412.7,2315.6 4495.7,2543.5 2402.2,1033.1" fill="#606060" stroke="#606060" stroke-width="2" stroke-linejoin="round"/>
<polygon points="3163.4,1800.4 3166.9,1926.5 4495.7,2543.5 4412.7,2315.6" fill="#606060" stroke="#606060" stroke-width="2" stroke-linejoin="round"/>
<polygon points="-436.8,1233.4 -667.1,1402.8 -1785.6,1862.8 -1277.7,1527.2" fill="#c8c8c8" stroke="#606060" stroke-width="2" stroke-linejoin="round"/>
<polygon points="-436.8,1233.4 -327.8,1839.1 -1456.5,2896.4 -1277.7,1527.2" fill="#c8c8c8" stroke="#606060" stroke-width="2" stroke-linejoin="round"/>
<polygon points="-667.1,1402.8 -607.6,2101.2 -2282.6,3670.4 -1785.6,1862.8" fill="#c8c8c8" stroke="#606060" stroke-width="2" stroke-linejoin="round"/>
<polygon points="-327.8,1839.1 -607.6,2101.2 -2282.6,3670.4 -1456.5,2896.4" fill="#c8c8c8" stroke="#606060" stroke-width="2" stroke-linejoin="round"/>
<polygon points="-1277.7,1527.2 -1456.5,2896.4 -2282.6,3670.4 -1785.6,1862.8" fill="#c8c8c8" stroke="#606060" stroke-width="2" stroke-linejoin="round"/>
<polygon points="1344.9,337.1 1331.9,349.7 1893.8,-111.4 1911.2,-129.6" fill="#ffffff" stroke="#606060" stroke-width="2" stroke-linejoin="round"/>
<polygon points="1344.9,337.1 1848.4,715.3 3512.6,565.4 1911.2,-129.6" fill="#ffffff" stroke="#606060" stroke-width="2" stroke-linejoin="round"/>
<polygon points="1331.9,349.7 1837.1,734.2 3522.9,610.6 1893.8,-111.4" fill="#ffffff" stroke="#606060" stroke-width="2" stroke-linejoin="round"/>
<polygon points="1848.4,715.3 1837.1,734.2 3522.9,610.6 3512.6,565.4" fill="#ffffff" stroke="#606060" stroke-width="2" stroke-linejoin="round"/>
<polygon points="1911.2,-129.6 3512.6,565.4 3522.9,610.6 1893.8,-111.4" fill="#ffffff" stroke="#606060" stroke-width="2" stroke-linejoin="round"/>
<polygon points="-431.8,1178.0 -626.9,1318.6 -2382.7,1955.6 -1773.6,1586.7" fill="#c8c8c8" stroke="#606060" stroke-width="2" stroke-linejoin="round"/>
<polygon points="-431.8,1178.0 -400.8,1344.9 -1905.2,2030.2 -1773.6,1586.7" fill="#c8c8c8" stroke="#606060" stroke-width="2" stroke-linejoin="round"/>
<polygon points="-626.9,1318.6 -607.7,1505.3 -2639.3,2528.4 -2382.7,1955.6" fill="#c8c8c8" stroke="#606060" stroke-width="2" stroke-linejoin="round"/>
<polygon points="-400.8,1344.9 -607.7,1505.3 -2639.3,2528.4 -1905.2,2030.2" fill="#c8c8c8" stroke="#606060" stroke-width="2" stroke-linejoin="round"/>
<polygon points="-1773.6,1586.7 -1905.2,2030.2 -2639.3,2528.4 -2382.7,1955.6" fill="#c8c8c8" stroke="#606060" stroke-width="2" stroke-linejoin="round"/>
<polygon points="403.1,576.3 416.5,596.0 -321.5,141.4 -339.3,95.6" fill="#ffffff" stroke="#606060" stroke-width="2" stroke-linejoin="round"/>
<polygon points="403.1,576.3 169.7,744.5 -1439.7,561.4 -339.3,95.6" fill="#ffffff" stroke="#606060" stroke-width="2" stroke-linejoin="round"/>
<polygon points="416.5,596.0 181.7,767.8 -1462.4,642.3 -321.5,141.4" fill="#ffffff" stroke="#606060" stroke-width="2" stroke-linejoin="round"/>
<polygon points="169.7,744.5 181.7,767.8 -1462.4,642.3 -1439.7,561.4" fill="#ffffff" stroke="#606060" stroke-width="2" stroke-linejoin="round"/>
<polygon points="-339.3,95.6 -321.5,141.4 -1462.4,642.3 -1439.7,561.4" fill="#ffffff" stroke="#606060" stroke-width="2" stroke-linejoin="round"/>
<polygon points="-1342.1,1611.3 -1801.0,1918.9 -3165.5,2506.5 -2309.2,1977.4" fill="#606060" stroke="#606060" stroke-width="2" stroke-linejoin="round"/>
<polygon points="-1342.1,1611.3 -1531.0,2882.1 -3405.2,4569.2 -2309.2,1977.4" fill="#606060" stroke="#606060" stroke-width="2" stroke-linejoin="round"/>
<polygon points="-1801.0,1918.9 -2246.6,3539.4 -5497.3,6479.9 -3165.5,2506.5" fill="#606060" stroke="#606060" stroke-width="2" stroke-linejoin="round"/>
<polygon points="-1531.0,2882.1 -2246.6,3539.4 -5497.3,6479.9 -3405.2,4569.2" fill="#606060" stroke="#606060" stroke-width="2" stroke-linejoin="round"/>
<polygon points="-2309.2,1977.4 -3405.2,4569.2 -5497.3,6479.9 -3165.5,2506.5" fill="#606060" stroke="#606060" stroke-width="2" stroke-linejoin="round"/>
<polygon points="3645.3,2600.4 3700.3,2982.5 6341.3,4937.0 5834.5,3960.7" fill="#c8c8c8" stroke="#606060" stroke-width="2" stroke-linejoin="round"/>
<polygon points="3645.3,2600.4 5096.6,3861.4 10834.4,7903.0 5834.5,3960.7" fill="#c8c8c8" stroke="#606060" stroke-width="2" stroke-linejoin="round"/>
<polygon points="3700.3,2982.5 5362.4,4547.5 13711.2,11334.6 6341.3,4937.0" fill="#c8c8c8" stroke="#606060" stroke-width="2" stroke-linejoin="round"/>
<polygon points="5096.6,3861.4 5362.4,4547.5 13711.2,11334.6 10834.4,7903.0" fill="#c8c8c8" stroke="#606060" stroke-width="2" stroke-linejoin="round"/>
<polygon points="5834.5,3960.7 10834.4,7903.0 13711.2,11334.6 6341.3,4937.0" fill="#c8c8c8" stroke="#606060" stroke-width="2" stroke-linejoin="round"/>
<polygon points="5151.8,3909.4 5383.1,4110.4 44862.7,32321.8 44252.9,31531.9" fill="#f3c9c4" stroke="#c0392b" stroke-width="3" stroke-linejoin="round"/>
<polygon points="5151.8,3909.4 5536.8,4885.5 40667.8,34890.5 44252.9,31531.9" fill="#f3c9c4" stroke="#c0392b" stroke-width="3" stroke-linejoin="round"/>
<polygon points="5383.1,4110.4 5830.6,5170.1 41277.6,35680.3 44862.7,32321.8" fill="#f3c9c4" stroke="#c0392b" stroke-width="3" stroke-linejoin="round"/>
<polygon points="5536.8,4885.5 5830.6,5170.1 41277.6,35680.3 40667.8,34890.5" fill="#f3c9c4" stroke="#c0392b" stroke-width="3" stroke-linejoin="round"/>
<polygon points="-787.9,989.8 -784.4,1061.9 -2830.4,1390.5 -2701.9,1208.0" fill="#f3c9c4" stroke="#c0392b" stroke-width="3" stroke-linejoin="round"/>
<polygon points="-787.9,989.8 -1517.3,1431.5 -5869.2,2610.2 -2701.9,1208.0" fill="#f3c9c4" stroke="#c0392b" stroke-width="3" stroke-linejoin="round"/>
<polygon points="-784.4,1061.9 -1539.9,1533.9 -6440.3,3065.6 -2830.4,1390.5" fill="#f3c9c4" stroke="#c0392b" stroke-width="3" stroke-linejoin="round"/>
<polygon points="-1517.3,1431.5 -1539.9,1533.9 -6440.3,3065.6 -5869.2,2610.2" fill="#f3c9c4" stroke="#c0392b" stroke-width="3" stroke-linejoin="round"/>
<polygon points="-2701.9,1208.0 -2830.4,1390.5 -6440.3,3065.6 -5869.2,2610.2" fill="#f3c9c4" stroke="#c0392b" stroke-width="3" stroke-linejoin="round"/>
<polygon points="-1091.2,3038.2 -1158.0,3108.6 -17891.2,23056.3 -17532.6,22720.5" fill="#c8c8c8" stroke="#606060" stroke-width="2" stroke-linejoin="round"/>
<polygon points="-1091.2,3038.2 -2765.4,41848.8 -17532.6,22720.5" fill="#c8c8c8" stroke="#606060" stroke-width="2" stroke-linejoin="round"/>
<polygon points="-1158.0,3108.6 -3383.1,41848.8 -17891.2,23056.3" fill="#c8c8c8" stroke="#606060" stroke-width="2" stroke-linejoin="round"/>
<polygon points="104.9,791.2 -3.1,869.0 -3433.7,1120.4 -2357.9,712.1" fill="#292929" stroke="#606060" stroke-width="2" stroke-linejoin="round"/>
<polygon points="104.9,791.2 209.0,1012.6 -3509.3,2343.3 -2357.9,712.1" fill="#292929" stroke="#606060" stroke-width="2" stroke-linejoin="round"/>
<polygon points="-3.1,869.0 93.6,1107.7 -6277.5,3895.9 -3433.7,1120.4" fill="#292929" stroke="#606060" stroke-width="2" stroke-linejoin="round"/>
<polygon points="209.0,1012.6 93.6,1107.7 -6277.5,3895.9 -3509.3,2343.3" fill="#292929" stroke="#606060" stroke-width="2" stroke-linejoin="round"/>
<polygon points="-2357.9,712.1 -3509.3,2343.3 -6277.5,3895.9 -3433.7,1120.4" fill="#292929" stroke="#606060" stroke-width="2" stroke-linejoin="round"/>
<polygon points="4411.2,3362.9 4654.6,4222.8 10721.6,9546.3 8287.2,6076.3" fill="#c8c8c8" stroke="#606060" stroke-width="2" stroke-linejoin="round"/>
<polygon points="4411.2,3362.9 5460.6,4293.9 13029.6,9909.1 8287.2,6076.3" fill="#c8c8c8" stroke="#606060" stroke-width="2" stroke-linejoin="round"/>
<polygon points="4654.6,4222.8 6000.9,5573.1 22319.7,20419.3 10721.6,9546.3" fill="#c8c8c8" stroke="#606060" stroke-width="2" stroke-linejoin="round"/>
<polygon points="5460.6,4293.9 6000.9,5573.1 22319.7,20419.3 13029.6,9909.1" fill="#c8c8c8" stroke="#606060" stroke-width="2" stroke-linejoin="round"/>
<polygon points="8287.2,6076.3 13029.6,9909.1 22319.7,20419.3 10721.6,9546.3" fill="#c8c8c8" stroke="#606060" stroke-width="2" stroke-linejoin="round"/>
<polygon points="-111.7,3039.6 -483.9,3551.9 -2247.8,7411.8 -1079.3,5488.8" fill="#9d9d9d" stroke="#606060" stroke-width="2" stroke-linejoin="round"/>
<polygon points="-111.7,3039.6 320.0,5438.2 -1589.1,25149.2 -1079.3,5488.8" fill="#9d9d9d" stroke="#606060" stroke-width="2" stroke-linejoin="round"/>
<polygon points="-483.9,3551.9 -211.5,6746.9 -5543.4,39050.6 -6848.1,37360.6 -2247.8,7411.8" fill="#9d9d9d" stroke="#606060" stroke-width="2" stroke-linejoin="round"/>
<polygon points="320.0,5438.2 -211.5,6746.9 -5543.4,39050.6 -3739.3,37360.6 -1589.1,25149.2" fill="#9d9d9d" stroke="#606060" stroke-width="2" stroke-linejoin="round"/>
<polygon points="-1079.3,5488.8 -1589.1,25149.2 -3739.3,37360.6 -6848.1,37360.6 -2247.8,7411.8" fill="#9d9d9d" stroke="#606060" stroke-width="2" stroke-linejoin="round"/>
<polygon points="2533.1,906.7 2525.7,937.1 8250.1,1342.9 7969.6,1196.8" fill="#c8c8c8" stroke="#606060" stroke-width="2" stroke-linejoin="round"/>
<polygon points="2533.1,906.7 5380.6,2777.9 30228.3,13365.6 24497.9,5942.9 7969.6,1196.8" fill="#c8c8c8" stroke="#606060" stroke-width="2" stroke-linejoin="round"/>
<polygon points="2525.7,937.1 5438.0,2880.8 29869.8,13701.4 23880.1,5942.9 8250.1,1342.9" fill="#c8c8c8" stroke="#606060" stroke-width="2" stroke-linejoin="round"/>
<polygon points="5380.6,2777.9 5438.0,2880.8 29869.8,13701.4 30228.3,13365.6" fill="#c8c8c8" stroke="#606060" stroke-width="2" stroke-linejoin="round"/>
<polygon points="7969.6,1196.8 24497.9,5942.9 23880.1,5942.9 8250.1,1342.9" fill="#c8c8c8" stroke="#606060" stroke-width="2" stroke-linejoin="round"/>
<polygon points="6231.3,7960.6 7964.6,10223.1 33211.2,43237.0 31381.9,40867.4" fill="#c8c8c8" stroke="#606060" stroke-width="2" stroke-linejoin="round"/>
<polygon points="6231.3,7960.6 8888.0,15802.9 25466.6,46409.0 31381.9,40867.4" fill="#c8c8c8" stroke="#606060" stroke-width="2" stroke-linejoin="round"/>
<polygon points="7964.6,10223.1 14398.2,25457.7 27295.9,48778.5 33211.2,43237.0" fill="#c8c8c8" stroke="#606060" stroke-width="2" stroke-linejoin="round"/>
<polygon points="8888.0,15802.9 14398.2,25457.7 27295.9,48778.5 25466.6,46409.0" fill="#c8c8c8" stroke="#606060" stroke-width="2" stroke-linejoin="round"/>
<polygon points="5169.0,5378.1 5482.0,6384.8 32564.7,38398.3 33672.5,37360.6 23080.9,23959.6" fill="#606060" stroke="#606060" stroke-width="2" stroke-linejoin="round"/>
<polygon points="5169.0,5378.1 6577.9,6939.6 37334.1,39374.7 35779.2,37360.6 23080.9,23959.6" fill="#606060" stroke="#606060" stroke-width="2" stroke-linejoin="round"/>
<polygon points="5482.0,6384.8 7246.5,8522.8 35003.8,41557.7 32564.7,38398.3" fill="#606060" stroke="#606060" stroke-width="2" stroke-linejoin="round"/>
<polygon points="6577.9,6939.6 7246.5,8522.8 35003.8,41557.7 37334.1,39374.7" fill="#606060" stroke="#606060" stroke-width="2" stroke-linejoin="round"/>
<polygon points="23080.9,23959.6 35779.2,37360.6 33672.5,37360.6" fill="#606060" stroke="#606060" stroke-width="2" stroke-linejoin="round"/>
<polygon points="8742.4,16870.9 19299.5,50825.3 23602.1,46794.6" fill="#9d9d9d" stroke="#606060" stroke-width="2" stroke-linejoin="round"/>
<polygon points="8742.4,16870.9 18783.9,35842.8 26041.1,49954.0 23602.1,46794.6" fill="#9d9d9d" stroke="#606060" stroke-width="2" stroke-linejoin="round"/>
<polygon points="18783.9,35842.8 25111.0,50825.3 26041.1,49954.0" fill="#9d9d9d" stroke="#606060" stroke-width="2" stroke-linejoin="round"/>
<path d="M902 217L1375 -1885" stroke="#b4b4b4" stroke-width="4"/>
</g></svg>