<svg xmlns="http://www.w3.org/2000/svg" width="1536" height="864" viewBox="0 0 1536 864"><rect width="1536" height="864" fill="#ffffff"/>
<clipPath id="fr"><rect width="1536" height="864"/></clipPath>
<g clip-path="url(#fr)">
<polygon points="909.2,350.8 319.7,399.5 233.9,-0.7 931.1,18.8" fill="#f4f4f4" stroke="#b4b4b4" stroke-width="1" stroke-linejoin="round"/>
<polygon points="909.2,350.8 2964.0,1656.9 14548.1,-2730.2 931.1,18.8" fill="#f4f4f4" stroke="#b4b4b4" stroke-width="1" stroke-linejoin="round"/>
<polygon points="909.2,350.8 2964.0,1656.9 -8120.1,19746.5 -12581.4,19746.5 319.7,399.5" fill="#e2e2e2" stroke="#b4b4b4" stroke-width="1" stroke-linejoin="round"/>
<polygon points="319.7,399.5 -12581.4,19746.5 -15236.6,-5601.0 233.9,-0.7" fill="#f4f4f4" stroke="#b4b4b4" stroke-width="1" stroke-linejoin="round"/>
<polygon points="2964.0,1656.9 -8120.1,19746.5 25323.6,-5601.0 14548.1,-2730.2" fill="#f4f4f4" stroke="#b4b4b4" stroke-width="1" stroke-linejoin="round"/>
<polygon points="898.2,351.7 842.0,356.4 844.7,277.3 902.9,274.0" fill="#9d9d9d" stroke="#606060" stroke-width="2" stroke-linejoin="round"/>
<polygon points="898.2,351.7 921.7,367.2 927.7,285.1 902.9,274.0" fill="#9d9d9d" stroke="#606060" stroke-width="2" stroke-linejoin="round"/>
<polygon points="842.0,356.4 862.5,372.4 866.2,288.9 844.7,277.3" fill="#9d9d9d" stroke="#606060" stroke-width="2" stroke-linejoin="round"/>
<polygon points="902.9,274.0 927.7,285.1 866.2,288.9 844.7,277.3" fill="#9d9d9d" stroke="#606060" stroke-width="2" stroke-linejoin="round"/>
<polygon points="921.7,367.2 862.5,372.4 866.2,288.9 927.7,285.1" fill="#9d9d9d" stroke="#606060" stroke-width="2" stroke-linejoin="round"/>
<polygon points="792.6,360.4 765.7,362.7 765.6,255.7 793.8,254.4" fill="#606060" stroke="#606060" stroke-width="2" stroke-linejoin="round"/>
<polygon points="792.6,360.4 802.1,369.4 803.9,259.9 793.8,254.4" fill="#606060" stroke="#606060" stroke-width="2" stroke-linejoin="round"/>
<polygon points="765.7,362.7 774.4,371.8 774.8,261.4 765.6,255.7" fill="#606060" stroke="#606060" stroke-width="2" stroke-linejoin="round"/>
<polygon points="802.1,369.4 774.4,371.8 774.8,261.4 803.9,259.9" fill="#606060" stroke="#606060" stroke-width="2" stroke-linejoin="round"/>
<polygon points="793.8,254.4 803.9,259.9 774.8,261.4 765.6,255.7" fill="#606060" stroke="#606060" stroke-width="2" stroke-linejoin="round"/>
<polygon points="833.4,357.1 798.5,360.0 801.0,179.8 838.9,178.8" fill="#606060" stroke="#606060" stroke-width="2" stroke-linejoin="round"/>
<polygon points="833.4,357.1 848.7,369.5 855.8,182.9 838.9,178.8" fill="#606060" stroke="#606060" stroke-width="2" stroke-linejoin="round"/>
<polygon points="798.5,360.0 812.3,372.6 816.2,183.9 801.0,179.8" fill="#606060" stroke="#606060" stroke-width="2" stroke-linejoin="round"/>
<polygon points="848.7,369.5 812.3,372.6 816.2,183.9 855.8,182.9" fill="#606060" stroke="#606060" stroke-width="2" stroke-linejoin="round"/>
<polygon points="838.9,178.8 855.8,182.9 816.2,183.9 801.0,179.8" fill="#606060" stroke="#606060" stroke-width="2" stroke-linejoin="round"/>
<polygon points="756.7,363.4 695.1,368.5 687.9,160.7 755.6,159.4" fill="#c8c8c8" stroke="#606060" stroke-width="2" stroke-linejoin="round"/>
<polygon points="756.7,363.4 766.8,374.5 766.7,162.1 755.6,159.4" fill="#c8c8c8" stroke="#606060" stroke-width="2" stroke-linejoin="round"/>
<polygon points="695.1,368.5 702.7,380.0 696.0,163.5 687.9,160.7" fill="#c8c8c8" stroke="#606060" stroke-width="2" stroke-linejoin="round"/>
<polygon points="766.8,374.5 702.7,380.0 696.0,163.5 766.7,162.1" fill="#c8c8c8" stroke="#606060" stroke-width="2" stroke-linejoin="round"/>
<polygon points="755.6,159.4 766.7,162.1 696.0,163.5 687.9,160.7" fill="#c8c8c8" stroke="#606060" stroke-width="2" stroke-linejoin="round"/>
<polygon points="915.6,354.9 873.4,358.4 881.2,199.9 926.4,198.4" fill="#c8c8c8" stroke="#606060" stroke-width="2" stroke-linejoin="round"/>
<polygon points="915.6,354.9 967.2,387.7 983.9,212.0 926.4,198.4" fill="#c8c8c8" stroke="#606060" stroke-width="2" stroke-linejoin="round"/>
<polygon points="873.4,358.4 920.2,392.3 933.2,213.9 881.2,199.9" fill="#c8c8c8" stroke="#606060" stroke-width="2" stroke-linejoin="round"/>
<polygon points="926.4,198.4 983.9,212.0 933.2,213.9 881.2,199.9" fill="#c8c8c8" stroke="#606060" stroke-width="2" stroke-linejoin="round"/>
<polygon points="967.2,387.7 920.2,392.3 933.2,213.9 983.9,212.0" fill="#c8c8c8" stroke="#606060" stroke-width="2" stroke-linejoin="round"/>
<polygon points="672.9,370.3 674.6,373.2 663.9,131.4 662.2,131.1" fill="#ffffff" stroke="#606060" stroke-width="2" stroke-linejoin="round"/>
<polygon points="672.9,370.3 581.2,377.9 559.5,132.0 662.2,131.1" fill="#ffffff" stroke="#606060" stroke-width="2" stroke-linejoin="round"/>
<polygon points="674.6,373.2 581.9,380.9 560.0,132.3 663.9,131.4" fill="#ffffff" stroke="#606060" stroke-width="2" stroke-linejoin="round"/>
<polygon points="581.2,377.9 581.9,380.9 560.0,132.3 559.5,132.0" fill="#ffffff" stroke="#606060" stroke-width="2" stroke-linejoin="round"/>
<polygon points="662.2,131.1 663.9,131.4 560.0,132.3 559.5,132.0" fill="#ffffff" stroke="#606060" stroke-width="2" stroke-linejoin="round"/>
<polygon points="509.0,383.9 403.9,392.6 385.9,289.0 496.6,283.1" fill="#9d9d9d" stroke="#606060" stroke-width="2" stroke-linejoin="round"/>
<polygon points="509.0,383.9 508.3,406.1 494.8,298.1 496.6,283.1" fill="#9d9d9d" stroke="#606060" stroke-width="2" stroke-linejoin="round"/>
<polygon points="403.9,392.6 394.6,416.3 374.5,305.0 385.9,289.0" fill="#9d9d9d" stroke="#606060" stroke-width="2" stroke-linejoin="round"/>
<polygon points="496.6,283.1 494.8,298.1 374.5,305.0 385.9,289.0" fill="#9d9d9d" stroke="#606060" stroke-width="2" stroke-linejoin="round"/>
<polygon points="508.3,406.1 394.6,416.3 374.5,305.0 494.8,298.1" fill="#9d9d9d" stroke="#606060" stroke-width="2" stroke-linejoin="round"/>
<polygon points="385.1,394.1 331.5,398.6 300.0,247.7 357.9,245.4" fill="#c8c8c8" stroke="#606060" stroke-width="2" stroke-linejoin="round"/>
<polygon points="385.1,394.1 377.7,410.5 348.3,254.1 357.9,245.4" fill="#c8c8c8" stroke="#606060" stroke-width="2" stroke-linejoin="round"/>
<polygon points="331.5,398.6 320.8,415.5 286.6,256.7 300.0,247.7" fill="#c8c8c8" stroke="#606060" stroke-width="2" stroke-linejoin="round"/>
<polygon points="377.7,410.5 320.8,415.5 286.6,256.7 348.3,254.1" fill="#c8c8c8" stroke="#606060" stroke-width="2" stroke-linejoin="round"/>
<polygon points="357.9,245.4 348.3,254.1 286.6,256.7 300.0,247.7" fill="#c8c8c8" stroke="#606060" stroke-width="2" stroke-linejoin="round"/>
<polygon points="557.5,379.9 519.5,383.0 488.0,116.5 531.2,116.3" fill="#292929" stroke="#606060" stroke-width="2" stroke-linejoin="round"/>
<polygon points="557.5,379.9 561.4,407.4 532.7,117.9 531.2,116.3" fill="#292929" stroke="#606060" stroke-width="2" stroke-linejoin="round"/>
<polygon points="519.5,383.0 519.6,411.2 484.6,118.1 488.0,116.5" fill="#292929" stroke="#606060" stroke-width="2" stroke-linejoin="round"/>
<polygon points="561.4,407.4 519.6,411.2 484.6,118.1 532.7,117.9" fill="#292929" stroke="#606060" stroke-width="2" stroke-linejoin="round"/>
<polygon points="531.2,116.3 532.7,117.9 484.6,118.1 488.0,116.5" fill="#292929" stroke="#606060" stroke-width="2" stroke-linejoin="round"/>
<polygon points="988.2,401.0 939.3,406.0 946.3,320.5 997.0,316.8" fill="#9d9d9d" stroke="#606060" stroke-width="2" stroke-linejoin="round"/>
<polygon points="988.2,401.0 1069.6,452.8 1083.9,355.7 997.0,316.8" fill="#9d9d9d" stroke="#606060" stroke-width="2" stroke-linejoin="round"/>
<polygon points="939.3,406.0 1013.7,459.6 1025.6,360.9 946.3,320.5" fill="#9d9d9d" stroke="#606060" stroke-width="2" stroke-linejoin="round"/>
<polygon points="997.0,316.8 1083.9,355.7 1025.6,360.9 946.3,320.5" fill="#9d9d9d" stroke="#606060" stroke-width="2" stroke-linejoin="round"/>
<polygon points="1069.6,452.8 1013.7,459.6 1025.6,360.9 1083.9,355.7" fill="#9d9d9d" stroke="#606060" stroke-width="2" stroke-linejoin="round"/>
<polygon points="379.2,399.0 316.6,404.2 291.7,289.3 358.2,285.8" fill="#c8c8c8" stroke="#606060" stroke-width="2" stroke-linejoin="round"/>
<polygon points="379.2,399.0 352.4,456.3 325.3,323.7 358.2,285.8" fill="#c8c8c8" stroke="#606060" stroke-width="2" stroke-linejoin="round"/>
<polygon points="316.6,404.2 276.9,463.8 244.1,328.7 291.7,289.3" fill="#c8c8c8" stroke="#606060" stroke-width="2" stroke-linejoin="round"/>
<polygon points="358.2,285.8 325.3,323.7 244.1,328.7 291.7,289.3" fill="#c8c8c8" stroke="#606060" stroke-width="2" stroke-linejoin="round"/>
<polygon points="352.4,456.3 276.9,463.8 244.1,328.7 325.3,323.7" fill="#c8c8c8" stroke="#606060" stroke-width="2" stroke-linejoin="round"/>
<polygon points="348.6,287.8 289.9,290.8 277.9,236.0 338.3,233.8" fill="#606060" stroke="#606060" stroke-width="2" stroke-linejoin="round"/>
<polygon points="348.6,287.8 317.3,322.1 304.1,258.9 338.3,233.8" fill="#606060" stroke="#606060" stroke-width="2" stroke-linejoin="round"/>
<polygon points="289.9,290.8 246.8,326.4 231.3,262.0 277.9,236.0" fill="#606060" stroke="#606060" stroke-width="2" stroke-linejoin="round"/>
<polygon points="338.3,233.8 304.1,258.9 231.3,262.0 277.9,236.0" fill="#606060" stroke="#606060" stroke-width="2" stroke-linejoin="round"/>
<polygon points="317.3,322.1 246.8,326.4 231.3,262.0 304.1,258.9" fill="#606060" stroke="#606060" stroke-width="2" stroke-linejoin="round"/>
<polygon points="995.5,293.1 988.8,293.5 1004.8,134.6 1011.9,134.5" fill="#ffffff" stroke="#606060" stroke-width="2" stroke-linejoin="round"/>
<polygon points="995.5,293.1 1093.3,332.2 1122.0,141.7 1011.9,134.5" fill="#ffffff" stroke="#606060" stroke-width="2" stroke-linejoin="round"/>
<polygon points="988.8,293.5 1085.5,332.9 1113.7,141.8 1004.8,134.6" fill="#ffffff" stroke="#606060" stroke-width="2" stroke-linejoin="round"/>
<polygon points="1011.9,134.5 1122.0,141.7 1113.7,141.8 1004.8,134.6" fill="#ffffff" stroke="#606060" stroke-width="2" stroke-linejoin="round"/>
<polygon points="1093.3,332.2 1085.5,332.9 1113.7,141.8 1122.0,141.7" fill="#ffffff" stroke="#606060" stroke-width="2" stroke-linejoin="round"/>
<polygon points="1141.2,376.4 1116.3,378.9 1129.0,301.6 1154.7,299.7" fill="#606060" stroke="#606060" stroke-width="2" stroke-linejoin="round"/>
<polygon points="1141.2,376.4 1375.8,479.7 1406.6,377.9 1154.7,299.7" fill="#606060" stroke="#606060" stroke-width="2" stroke-linejoin="round"/>
<polygon points="1116.3,378.9 1344.3,484.3 1373.9,381.5 1129.0,301.6" fill="#606060" stroke="#606060" stroke-width="2" stroke-linejoin="round"/>
<polygon points="1154.7,299.7 1406.6,377.9 1373.9,381.5 1129.0,301.6" fill="#606060" stroke="#606060" stroke-width="2" stroke-linejoin="round"/>
<polygon points="1375.8,479.7 1344.3,484.3 1373.9,381.5 1406.6,377.9" fill="#606060" stroke="#606060" stroke-width="2" stroke-linejoin="round"/>
<polygon points="1095.9,469.5 997.7,482.3 1010.2,373.6 1113.0,364.0" fill="#9d9d9d" stroke="#606060" stroke-width="2" stroke-linejoin="round"/>
<polygon points="1095.9,469.5 1385.9,653.8 1435.6,506.0 1113.0,364.0" fill="#9d9d9d" stroke="#606060" stroke-width="2" stroke-linejoin="round"/>
<polygon points="997.7,482.3 1251.3,683.1 1292.5,529.3 1010.2,373.6" fill="#9d9d9d" stroke="#606060" stroke-width="2" stroke-linejoin="round"/>
<polygon points="1113.0,364.0 1435.6,506.0 1292.5,529.3 1010.2,373.6" fill="#9d9d9d" stroke="#606060" stroke-width="2" stroke-linejoin="round"/>
<polygon points="1385.9,653.8 1251.3,683.1 1292.5,529.3 1435.6,506.0" fill="#9d9d9d" stroke="#606060" stroke-width="2" stroke-linejoin="round"/>
<polygon points="1148.7,271.8 1140.2,272.4 1171.3,87.6 1180.4,87.6" fill="#c8c8c8" stroke="#606060" stroke-width="2" stroke-linejoin="round"/>
<polygon points="1148.7,271.8 1438.2,349.7 1522.7,80.1 1180.4,87.6" fill="#c8c8c8" stroke="#606060" stroke-width="2" stroke-linejoin="round"/>
<polygon points="1140.2,272.4 1427.1,350.8 1510.7,80.0 1171.3,87.6" fill="#c8c8c8" stroke="#606060" stroke-width="2" stroke-linejoin="round"/>
<polygon points="1180.4,87.6 1522.7,80.1 1510.7,80.0 1171.3,87.6" fill="#c8c8c8" stroke="#606060" stroke-width="2" stroke-linejoin="round"/>
<polygon points="1438.2,349.7 1427.1,350.8 1510.7,80.0 1522.7,80.1" fill="#c8c8c8" stroke="#606060" stroke-width="2" stroke-linejoin="round"/>
<polygon points="304.2,559.4 204.7,572.0 168.2,447.6 274.9,437.7" fill="#9d9d9d" stroke="#606060" stroke-width="2" stroke-linejoin="round"/>
<polygon points="304.2,559.4 223.7,731.4 175.3,575.2 274.9,437.7" fill="#9d9d9d" stroke="#606060" stroke-width="2" stroke-linejoin="round"/>
<polygon points="204.7,572.0 82.4,755.5 18.8,595.0 168.2,447.6" fill="#9d9d9d" stroke="#606060" stroke-width="2" stroke-linejoin="round"/>
<polygon points="274.9,437.7 175.3,575.2 18.8,595.0 168.2,447.6" fill="#9d9d9d" stroke="#606060" stroke-width="2" stroke-linejoin="round"/>
<polygon points="223.7,731.4 82.4,755.5 18.8,595.0 175.3,575.2" fill="#9d9d9d" stroke="#606060" stroke-width="2" stroke-linejoin="round"/>
<polygon points="1584.7,780.2 1513.1,801.0 1561.0,692.4 1635.6,673.7" fill="#606060" stroke="#606060" stroke-width="2" stroke-linejoin="round"/>
<polygon points="1584.7,780.2 1734.8,875.6 1804.1,759.9 1635.6,673.7" fill="#606060" stroke="#606060" stroke-width="2" stroke-linejoin="round"/>
<polygon points="1513.1,801.0 1658.0,902.8 1724.2,784.8 1561.0,692.4" fill="#606060" stroke="#606060" stroke-width="2" stroke-linejoin="round"/>
<polygon points="1635.6,673.7 1804.1,759.9 1724.2,784.8 1561.0,692.4" fill="#606060" stroke="#606060" stroke-width="2" stroke-linejoin="round"/>
<polygon points="1734.8,875.6 1658.0,902.8 1724.2,784.8 1804.1,759.9" fill="#606060" stroke="#606060" stroke-width="2" stroke-linejoin="round"/>
<polygon points="1630.2,232.5 1592.0,234.7 1627.3,138.0 1666.5,137.4" fill="#606060" stroke="#606060" stroke-width="2" stroke-linejoin="round"/>
<polygon points="1630.2,232.5 1749.9,246.5 1796.0,141.4 1666.5,137.4" fill="#606060" stroke="#606060" stroke-width="2" stroke-linejoin="round"/>
<polygon points="1592.0,234.7 1709.8,249.2 1754.8,142.1 1627.3,138.0" fill="#606060" stroke="#606060" stroke-width="2" stroke-linejoin="round"/>
<polygon points="1666.5,137.4 1796.0,141.4 1754.8,142.1 1627.3,138.0" fill="#606060" stroke="#606060" stroke-width="2" stroke-linejoin="round"/>
<polygon points="1749.9,246.5 1709.8,249.2 1754.8,142.1 1796.0,141.4" fill="#606060" stroke="#606060" stroke-width="2" stroke-linejoin="round"/>
<polygon points="1870.7,962.0 1769.3,1004.6 1889.7,826.2 1996.4,788.1" fill="#c8c8c8" stroke="#606060" stroke-width="2" stroke-linejoin="round"/>
<polygon points="1870.7,962.0 2739.5,1514.2 3137.6,1317.5 1996.4,788.1" fill="#c8c8c8" stroke="#606060" stroke-width="2" stroke-linejoin="round"/>
<polygon points="1769.3,1004.6 2640.6,1633.0 3057.5,1442.5 1889.7,826.2" fill="#c8c8c8" stroke="#606060" stroke-width="2" stroke-linejoin="round"/>
<polygon points="1996.4,788.1 3137.6,1317.5 3057.5,1442.5 1889.7,826.2" fill="#c8c8c8" stroke="#606060" stroke-width="2" stroke-linejoin="round"/>
<polygon points="2739.5,1514.2 2640.6,1633.0 3057.5,1442.5 3137.6,1317.5" fill="#c8c8c8" stroke="#606060" stroke-width="2" stroke-linejoin="round"/>
<polygon points="2232.7,1227.7 2064.8,1339.9 2288.7,1141.6 2459.1,1032.8" fill="#c8c8c8" stroke="#606060" stroke-width="2" stroke-linejoin="round"/>
<polygon points="2232.7,1227.7 2941.8,1693.1 3449.2,1507.4 2459.1,1032.8" fill="#c8c8c8" stroke="#606060" stroke-width="2" stroke-linejoin="round"/>
<polygon points="2064.8,1339.9 2798.5,1927.0 3361.4,1771.3 2288.7,1141.6" fill="#c8c8c8" stroke="#606060" stroke-width="2" stroke-linejoin="round"/>
<polygon points="2459.1,1032.8 3449.2,1507.4 3361.4,1771.3 2288.7,1141.6" fill="#c8c8c8" stroke="#606060" stroke-width="2" stroke-linejoin="round"/>
<polygon points="2941.8,1693.1 2798.5,1927.0 3361.4,1771.3 3449.2,1507.4" fill="#c8c8c8" stroke="#606060" stroke-width="2" stroke-linejoin="round"/>
<polygon points="2024.5,1536.2 1885.9,1641.3 2164.9,1429.8 2311.8,1318.5" fill="#606060" stroke="#606060" stroke-width="2" stroke-linejoin="round"/>
<polygon points="2024.5,1536.2 2664.6,2145.5 3349.0,2021.7 2311.8,1318.5" fill="#606060" stroke="#606060" stroke-width="2" stroke-linejoin="round"/>
<polygon points="1885.9,1641.3 2529.7,2365.6 3262.4,2314.5 2164.9,1429.8" fill="#606060" stroke="#606060" stroke-width="2" stroke-linejoin="round"/>
<polygon points="2311.8,1318.5 3349.0,2021.7 3262.4,2314.5 2164.9,1429.8" fill="#606060" stroke="#606060" stroke-width="2" stroke-linejoin="round"/>
<polygon points="2664.6,2145.5 2529.7,2365.6 3262.4,2314.5 3349.0,2021.7" fill="#606060" stroke="#606060" stroke-width="2" stroke-linejoin="round"/>
<polygon points="3668.5,1388.7 4012.3,1529.1 5136.6,1196.7 4544.8,1056.4" fill="#9d9d9d" stroke="#606060" stroke-width="2" stroke-linejoin="round"/>
<polygon points="3668.5,1388.7 3622.2,1628.6 4706.3,1301.9 4544.8,1056.4" fill="#9d9d9d" stroke="#606060" stroke-width="2" stroke-linejoin="round"/>
<polygon points="4012.3,1529.1 4032.6,1830.3 5510.7,1532.3 5136.6,1196.7" fill="#9d9d9d" stroke="#606060" stroke-width="2" stroke-linejoin="round"/>
<polygon points="3622.2,1628.6 4032.6,1830.3 5510.7,1532.3 4706.3,1301.9" fill="#9d9d9d" stroke="#606060" stroke-width="2" stroke-linejoin="round"/>
<polygon points="4544.8,1056.4 5136.6,1196.7 5510.7,1532.3 4706.3,1301.9" fill="#9d9d9d" stroke="#606060" stroke-width="2" stroke-linejoin="round"/>
<polygon points="253.0,419.1 242.3,420.0 154.6,75.0 167.4,75.1" fill="#c8c8c8" stroke="#606060" stroke-width="2" stroke-linejoin="round"/>
<polygon points="253.0,419.1 -1044.3,1970.6 -10574.8,-753.5 167.4,75.1" fill="#c8c8c8" stroke="#606060" stroke-width="2" stroke-linejoin="round"/>
<polygon points="242.3,420.0 -1131.3,2003.3 -12328.0,-857.0 154.6,75.0" fill="#c8c8c8" stroke="#606060" stroke-width="2" stroke-linejoin="round"/>
<polygon points="167.4,75.1 -10574.8,-753.5 -12328.0,-857.0 154.6,75.0" fill="#c8c8c8" stroke="#606060" stroke-width="2" stroke-linejoin="round"/>
<polygon points="-1044.3,1970.6 -1131.3,2003.3 -12328.0,-857.0 -10574.8,-753.5" fill="#c8c8c8" stroke="#606060" stroke-width="2" stroke-linejoin="round"/>
<polygon points="1089.2,2245.1 364.5,2794.4 51.7,3031.5 1260.3,2115.4" fill="#9d9d9d" stroke="#606060" stroke-width="2" stroke-linejoin="round"/>
<polygon points="1089.2,2245.1 1548.2,3967.4 2859.7,6453.2 1260.3,2115.4" fill="#9d9d9d" stroke="#606060" stroke-width="2" stroke-linejoin="round"/>
<polygon points="364.5,2794.4 169.2,6218.0 -1155.3,14467.8 -1398.9,12142.3 51.7,3031.5" fill="#9d9d9d" stroke="#606060" stroke-width="2" stroke-linejoin="round"/>
<polygon points="1260.3,2115.4 2859.7,6453.2 1913.0,12142.3 -1398.9,12142.3 51.7,3031.5" fill="#9d9d9d" stroke="#606060" stroke-width="2" stroke-linejoin="round"/>
<polygon points="1548.2,3967.4 169.2,6218.0 -1155.3,14467.8 1913.0,12142.3 2859.7,6453.2" fill="#9d9d9d" stroke="#606060" stroke-width="2" stroke-linejoin="round"/>
<polygon points="175.3,62.2 142.3,61.8 135.7,36.3 169.1,36.9" fill="#9d9d9d" stroke="#606060" stroke-width="2" stroke-linejoin="round"/>
<polygon points="175.3,62.2 -5465.7,-596.6 -6836.0,-1274.9 169.1,36.9" fill="#9d9d9d" stroke="#606060" stroke-width="2" stroke-linejoin="round"/>
<polygon points="142.3,61.8 -7154.7,-722.5 -9294.5,-1589.7 135.7,36.3" fill="#9d9d9d" stroke="#606060" stroke-width="2" stroke-linejoin="round"/>
<polygon points="169.1,36.9 -6836.0,-1274.9 -9294.5,-1589.7 135.7,36.3" fill="#9d9d9d" stroke="#606060" stroke-width="2" stroke-linejoin="round"/>
<polygon points="-5465.7,-596.6 -7154.7,-722.5 -9294.5,-1589.7 -6836.0,-1274.9" fill="#9d9d9d" stroke="#606060" stroke-width="2" stroke-linejoin="round"/>
<polygon points="1880.1,1884.3 1321.2,2373.4 4709.1,1668.0 4184.8,632.0" fill="#c8c8c8" stroke="#606060" stroke-width="2" stroke-linejoin="round"/>
<polygon points="1880.1,1884.3 2404.4,2570.2 13793.0,3138.2 13674.1,2003.3 4184.8,632.0" fill="#c8c8c8" stroke="#606060" stroke-width="2" stroke-linejoin="round"/>
<polygon points="2404.4,2570.2 1761.7,3619.0 6318.9,8803.0 13793.0,3138.2" fill="#c8c8c8" stroke="#606060" stroke-width="2" stroke-linejoin="round"/>
<polygon points="1321.2,2373.4 1761.7,3619.0 6318.9,8803.0 5606.6,2003.3 4709.1,1668.0" fill="#c8c8c8" stroke="#606060" stroke-width="2" stroke-linejoin="round"/>
<polygon points="4184.8,632.0 13674.1,2003.3 5606.6,2003.3 4709.1,1668.0" fill="#c8c8c8" stroke="#606060" stroke-width="2" stroke-linejoin="round"/>
<polygon points="2396.3,2072.1 3539.1,3270.6 3387.0,1818.7" fill="#606060" stroke="#606060" stroke-width="2" stroke-linejoin="round"/>
<polygon points="2396.3,2072.1 1471.4,3270.6 3387.0,1818.7" fill="#606060" stroke="#606060" stroke-width="2" stroke-linejoin="round"/>
<polygon points="-1044.3,1970.6 -1131.3,2003.3 -12328.0,-857.0 -10574.8,-753.5" fill="#c8c8c8" stroke="#606060" stroke-width="2" stroke-linejoin="round"/>
<polygon points="-1044.3,1970.6 -12517.3,15690.9 -14269.7,-1038.5 -10574.8,-753.5" fill="#c8c8c8" stroke="#606060" stroke-width="2" stroke-linejoin="round"/>
<polygon points="-1131.3,2003.3 -13006.2,15690.9 -14758.6,-1038.5 -12328.0,-857.0" fill="#c8c8c8" stroke="#606060" stroke-width="2" stroke-linejoin="round"/>
<polygon points="-10574.8,-753.5 -14269.7,-1038.5 -14758.6,-1038.5 -12328.0,-857.0" fill="#c8c8c8" stroke="#606060" stroke-width="2" stroke-linejoin="round"/>
<polygon points="-4371.1,15444.2 -4449.8,15690.9 -4453.8,15652.6" fill="#c8c8c8" stroke="#606060" stroke-width="2" stroke-linejoin="round"/>
<polygon points="-4371.1,15444.2 -4504.4,15690.9 -4453.8,15652.6" fill="#c8c8c8" stroke="#606060" stroke-width="2" stroke-linejoin="round"/>
<path d="M909 351L931 19" stroke="#b4b4b4" stroke-width="4"/>
<path d="M320 400L234 -1" stroke="#b4b4b4" stroke-width="4"/>
</g></svg>