<svg xmlns="http://www.w3.org/2000/svg" width="1536" height="864" viewBox="0 0 1536 864"><rect width="1536" height="864" fill="#ffffff"/>
<clipPath id="fr"><rect width="1536" height="864"/></clipPath>
<g clip-path="url(#fr)">
<polygon points="494.6,980.2 2901.8,977.0 2237.5,-76.1 580.3,-81.4" fill="#f4f4f4" stroke="#b4b4b4" stroke-width="1" stroke-linejoin="round"/>
<polygon points="38408.9,6061.4 2901.8,977.0 2237.5,-76.1 38434.0,-18440.4" fill="#f4f4f4" stroke="#b4b4b4" stroke-width="1" stroke-linejoin="round"/>
<polygon points="-3946.8,6061.4 494.6,980.2 580.3,-81.4 -3921.8,-18440.4" fill="#f4f4f4" stroke="#b4b4b4" stroke-width="1" stroke-linejoin="round"/>
<polygon points="-3946.8,6061.4 494.6,980.2 2901.8,977.0 38408.9,6061.4" fill="#e2e2e2" stroke="#b4b4b4" stroke-width="1" stroke-linejoin="round"/>
<polygon points="2013.8,47.1 1985.4,61.3 2324.7,62.2 2361.0,48.0" fill="#c8c8c8" stroke="#606060" stroke-width="2" stroke-linejoin="round"/>
<polygon points="2324.8,749.0 2757.8,748.8 2324.7,62.2 1985.4,61.3" fill="#c8c8c8" stroke="#606060" stroke-width="2" stroke-linejoin="round"/>
<polygon points="2817.5,751.2 2757.8,748.8 2324.7,62.2 2361.0,48.0" fill="#c8c8c8" stroke="#606060" stroke-width="2" stroke-linejoin="round"/>
<polygon points="2371.5,751.3 2324.8,749.0 1985.4,61.3 2013.8,47.1" fill="#c8c8c8" stroke="#606060" stroke-width="2" stroke-linejoin="round"/>
<polygon points="2371.5,751.3 2817.5,751.2 2361.0,48.0 2013.8,47.1" fill="#c8c8c8" stroke="#606060" stroke-width="2" stroke-linejoin="round"/>
<polygon points="787.6,286.3 786.8,300.8 969.8,301.0 977.8,286.6" fill="#9d9d9d" stroke="#606060" stroke-width="2" stroke-linejoin="round"/>
<polygon points="788.0,479.6 983.1,479.8 969.8,301.0 786.8,300.8" fill="#9d9d9d" stroke="#606060" stroke-width="2" stroke-linejoin="round"/>
<polygon points="992.3,471.8 983.1,479.8 969.8,301.0 977.8,286.6" fill="#9d9d9d" stroke="#606060" stroke-width="2" stroke-linejoin="round"/>
<polygon points="789.0,471.6 788.0,479.6 786.8,300.8 787.6,286.3" fill="#9d9d9d" stroke="#606060" stroke-width="2" stroke-linejoin="round"/>
<polygon points="789.0,471.6 992.3,471.8 977.8,286.6 787.6,286.3" fill="#9d9d9d" stroke="#606060" stroke-width="2" stroke-linejoin="round"/>
<polygon points="1666.4,207.3 1893.2,207.7 1802.6,-2.6 1594.0,-3.2" fill="#606060" stroke="#606060" stroke-width="2" stroke-linejoin="round"/>
<polygon points="1746.7,-127.4 1594.0,-3.2 1802.6,-2.6 1993.4,-126.5" fill="#606060" stroke="#606060" stroke-width="2" stroke-linejoin="round"/>
<polygon points="2122.5,113.6 1893.2,207.7 1802.6,-2.6 1993.4,-126.5" fill="#606060" stroke="#606060" stroke-width="2" stroke-linejoin="round"/>
<polygon points="1849.9,112.9 1666.4,207.3 1594.0,-3.2 1746.7,-127.4" fill="#606060" stroke="#606060" stroke-width="2" stroke-linejoin="round"/>
<polygon points="1849.9,112.9 2122.5,113.6 1993.4,-126.5 1746.7,-127.4" fill="#606060" stroke="#606060" stroke-width="2" stroke-linejoin="round"/>
<polygon points="545.8,190.9 556.5,214.3 765.3,214.7 765.3,191.4" fill="#f3c9c4" stroke="#c0392b" stroke-width="3" stroke-linejoin="round"/>
<polygon points="494.6,980.2 764.5,979.8 765.3,214.7 556.5,214.3" fill="#f3c9c4" stroke="#c0392b" stroke-width="3" stroke-linejoin="round"/>
<polygon points="764.5,1000.6 764.5,979.8 765.3,214.7 765.3,191.4" fill="#f3c9c4" stroke="#c0392b" stroke-width="3" stroke-linejoin="round"/>
<polygon points="476.5,1001.0 494.6,980.2 556.5,214.3 545.8,190.9" fill="#f3c9c4" stroke="#c0392b" stroke-width="3" stroke-linejoin="round"/>
<polygon points="476.5,1001.0 764.5,1000.6 765.3,191.4 545.8,190.9" fill="#f3c9c4" stroke="#c0392b" stroke-width="3" stroke-linejoin="round"/>
<polygon points="1300.7,76.5 1224.3,161.3 1559.6,162.1 1691.7,77.5" fill="#c8c8c8" stroke="#606060" stroke-width="2" stroke-linejoin="round"/>
<polygon points="1369.6,979.0 1811.3,978.5 1559.6,162.1 1224.3,161.3" fill="#c8c8c8" stroke="#606060" stroke-width="2" stroke-linejoin="round"/>
<polygon points="2053.3,1049.5 1811.3,978.5 1559.6,162.1 1691.7,77.5" fill="#c8c8c8" stroke="#606060" stroke-width="2" stroke-linejoin="round"/>
<polygon points="1509.8,1050.4 1369.6,979.0 1224.3,161.3 1300.7,76.5" fill="#c8c8c8" stroke="#606060" stroke-width="2" stroke-linejoin="round"/>
<polygon points="1509.8,1050.4 2053.3,1049.5 1691.7,77.5 1300.7,76.5" fill="#c8c8c8" stroke="#606060" stroke-width="2" stroke-linejoin="round"/>
<polygon points="1904.8,978.3 2251.4,977.9 2073.8,572.8 1768.5,572.7" fill="#9d9d9d" stroke="#606060" stroke-width="2" stroke-linejoin="round"/>
<polygon points="2052.1,544.9 1768.5,572.7 2073.8,572.8 2443.0,545.1" fill="#9d9d9d" stroke="#606060" stroke-width="2" stroke-linejoin="round"/>
<polygon points="2746.7,1080.1 2251.4,977.9 2073.8,572.8 2443.0,545.1" fill="#9d9d9d" stroke="#606060" stroke-width="2" stroke-linejoin="round"/>
<polygon points="2285.4,1080.9 1904.8,978.3 1768.5,572.7 2052.1,544.9" fill="#9d9d9d" stroke="#606060" stroke-width="2" stroke-linejoin="round"/>
<polygon points="2285.4,1080.9 2746.7,1080.1 2443.0,545.1 2052.1,544.9" fill="#9d9d9d" stroke="#606060" stroke-width="2" stroke-linejoin="round"/>
<polygon points="1060.7,979.4 1235.4,979.2 1189.4,645.8 1031.9,645.8" fill="#606060" stroke="#606060" stroke-width="2" stroke-linejoin="round"/>
<polygon points="1110.0,638.4 1031.9,645.8 1189.4,645.8 1313.5,638.4" fill="#606060" stroke="#606060" stroke-width="2" stroke-linejoin="round"/>
<polygon points="1393.1,1082.5 1235.4,979.2 1189.4,645.8 1313.5,638.4" fill="#606060" stroke="#606060" stroke-width="2" stroke-linejoin="round"/>
<polygon points="1160.0,1082.9 1060.7,979.4 1031.9,645.8 1110.0,638.4" fill="#606060" stroke="#606060" stroke-width="2" stroke-linejoin="round"/>
<polygon points="1160.0,1082.9 1393.1,1082.5 1313.5,638.4 1110.0,638.4" fill="#606060" stroke="#606060" stroke-width="2" stroke-linejoin="round"/>
<polygon points="548.7,980.1 845.4,979.7 838.3,671.0 568.7,671.0" fill="#c8c8c8" stroke="#606060" stroke-width="2" stroke-linejoin="round"/>
<polygon points="490.1,671.0 568.7,671.0 838.3,671.0 867.7,671.0" fill="#c8c8c8" stroke="#606060" stroke-width="2" stroke-linejoin="round"/>
<polygon points="882.3,1121.2 845.4,979.7 838.3,671.0 867.7,671.0" fill="#c8c8c8" stroke="#606060" stroke-width="2" stroke-linejoin="round"/>
<polygon points="449.4,1122.1 548.7,980.1 568.7,671.0 490.1,671.0" fill="#c8c8c8" stroke="#606060" stroke-width="2" stroke-linejoin="round"/>
<polygon points="449.4,1122.1 882.3,1121.2 867.7,671.0 490.1,671.0" fill="#c8c8c8" stroke="#606060" stroke-width="2" stroke-linejoin="round"/>
<polygon points="2733.1,748.9 2757.8,748.8 2324.7,62.2 2305.3,62.1" fill="#c8c8c8" stroke="#606060" stroke-width="2" stroke-linejoin="round"/>
<polygon points="3589.3,-445.3 2305.3,62.1 2324.7,62.2 3624.6,-445.2" fill="#c8c8c8" stroke="#606060" stroke-width="2" stroke-linejoin="round"/>
<polygon points="5521.6,856.8 2757.8,748.8 2324.7,62.2 3624.6,-445.2" fill="#c8c8c8" stroke="#606060" stroke-width="2" stroke-linejoin="round"/>
<polygon points="5463.3,856.8 2733.1,748.9 2305.3,62.1 3589.3,-445.3" fill="#c8c8c8" stroke="#606060" stroke-width="2" stroke-linejoin="round"/>
<polygon points="5463.3,856.8 5521.6,856.8 3624.6,-445.2 3589.3,-445.3" fill="#c8c8c8" stroke="#606060" stroke-width="2" stroke-linejoin="round"/>
<polygon points="471.5,1006.6 691.3,1006.3 698.9,671.0 500.7,671.0" fill="#c8c8c8" stroke="#606060" stroke-width="2" stroke-linejoin="round"/>
<polygon points="191.7,671.0 500.7,671.0 698.9,671.0 621.8,671.0" fill="#c8c8c8" stroke="#606060" stroke-width="2" stroke-linejoin="round"/>
<polygon points="582.3,1503.6 691.3,1006.3 698.9,671.0 621.8,671.0" fill="#c8c8c8" stroke="#606060" stroke-width="2" stroke-linejoin="round"/>
<polygon points="35.4,1505.5 471.5,1006.6 500.7,671.0 191.7,671.0" fill="#c8c8c8" stroke="#606060" stroke-width="2" stroke-linejoin="round"/>
<polygon points="35.4,1505.5 582.3,1503.6 621.8,671.0 191.7,671.0" fill="#c8c8c8" stroke="#606060" stroke-width="2" stroke-linejoin="round"/>
<polygon points="968.2,1141.8 1381.4,1140.9 1290.1,612.9 938.4,612.8" fill="#bfe3cf" stroke="#2e8b57" stroke-width="3" stroke-linejoin="round"/>
<polygon points="1059.5,572.1 938.4,612.8 1290.1,612.9 1655.7,572.4" fill="#bfe3cf" stroke="#2e8b57" stroke-width="3" stroke-linejoin="round"/>
<polygon points="1955.7,1578.6 1381.4,1140.9 1290.1,612.9 1655.7,572.4" fill="#bfe3cf" stroke="#2e8b57" stroke-width="3" stroke-linejoin="round"/>
<polygon points="1158.3,1581.7 968.2,1141.8 938.4,612.8 1059.5,572.1" fill="#bfe3cf" stroke="#2e8b57" stroke-width="3" stroke-linejoin="round"/>
<polygon points="1158.3,1581.7 1955.7,1578.6 1655.7,572.4 1059.5,572.1" fill="#bfe3cf" stroke="#2e8b57" stroke-width="3" stroke-linejoin="round"/>
<polygon points="3749.0,-571.4 3844.0,-570.9 3765.9,-617.4 3673.3,-617.9" fill="#9d9d9d" stroke="#606060" stroke-width="2" stroke-linejoin="round"/>
<polygon points="37254.4,-15500.2 3673.3,-617.9 3765.9,-617.4 38431.0,-15500.2" fill="#9d9d9d" stroke="#606060" stroke-width="2" stroke-linejoin="round"/>
<polygon points="38430.0,-14520.1 3844.0,-570.9 3765.9,-617.4 38431.0,-15500.2" fill="#9d9d9d" stroke="#606060" stroke-width="2" stroke-linejoin="round"/>
<polygon points="37253.4,-14520.1 3749.0,-571.4 3673.3,-617.9 37254.4,-15500.2" fill="#9d9d9d" stroke="#606060" stroke-width="2" stroke-linejoin="round"/>
<polygon points="5463.3,856.8 5521.6,856.8 3624.6,-445.2 3589.3,-445.3" fill="#c8c8c8" stroke="#606060" stroke-width="2" stroke-linejoin="round"/>
<polygon points="37958.8,-14030.1 3589.3,-445.3 3624.6,-445.2 38429.5,-14030.1" fill="#c8c8c8" stroke="#606060" stroke-width="2" stroke-linejoin="round"/>
<polygon points="38412.9,2141.1 5521.6,856.8 3624.6,-445.2 38429.5,-14030.1" fill="#c8c8c8" stroke="#606060" stroke-width="2" stroke-linejoin="round"/>
<polygon points="37942.3,2141.1 5463.3,856.8 3589.3,-445.3 37958.8,-14030.1" fill="#c8c8c8" stroke="#606060" stroke-width="2" stroke-linejoin="round"/>
<polygon points="-647.5,-2424.3 -221.1,-2418.7 -30.2,-2416.2 -374.0,-2420.7" fill="#606060" stroke="#606060" stroke-width="2" stroke-linejoin="round"/>
<polygon points="-2643.2,-8581.1 -374.0,-2420.7 -30.2,-2416.2 -1607.6,-8540.8" fill="#606060" stroke="#606060" stroke-width="2" stroke-linejoin="round"/>
<polygon points="-2519.0,-9619.7 -221.1,-2418.7 -30.2,-2416.2 -1607.6,-8540.8 -2517.7,-10891.2" fill="#606060" stroke="#606060" stroke-width="2" stroke-linejoin="round"/>
<polygon points="-3930.8,-9619.7 -647.5,-2424.3 -374.0,-2420.7 -2643.2,-8581.1 -3929.5,-10909.8" fill="#606060" stroke="#606060" stroke-width="2" stroke-linejoin="round"/>
<polygon points="-2517.7,-10891.2 -1607.6,-8540.8 -2643.2,-8581.1 -3929.5,-10909.8" fill="#606060" stroke="#606060" stroke-width="2" stroke-linejoin="round"/>
<polygon points="-503.2,2121.7 258.4,2117.0 388.2,964.9 -178.6,965.6" fill="#606060" stroke="#606060" stroke-width="2" stroke-linejoin="round"/>
<polygon points="-3334.4,1951.1 -178.6,965.6 388.2,964.9 -858.6,1937.8" fill="#606060" stroke="#606060" stroke-width="2" stroke-linejoin="round"/>
<polygon points="-1123.1,6061.4 258.4,2117.0 388.2,964.9 -858.6,1937.8 -1119.6,2634.9" fill="#606060" stroke="#606060" stroke-width="2" stroke-linejoin="round"/>
<polygon points="-3946.8,6061.4 -503.2,2121.7 -178.6,965.6 -3334.4,1951.1 -3943.3,2597.8" fill="#606060" stroke="#606060" stroke-width="2" stroke-linejoin="round"/>
<polygon points="-1119.6,2634.9 -858.6,1937.8 -3334.4,1951.1 -3943.3,2597.8" fill="#606060" stroke="#606060" stroke-width="2" stroke-linejoin="round"/>
<path d="M495 980L580 -81" stroke="#b4b4b4" stroke-width="4"/>
</g></svg>