<svg xmlns="http://www.w3.org/2000/svg" width="1536" height="864" viewBox="0 0 1536 864"><rect width="1536" height="864" fill="#ffffff"/>
<clipPath id="fr"><rect width="1536" height="864"/></clipPath>
<g clip-path="url(#fr)">
<polygon points="1615.4,481.9 65.5,327.1 -558.6,-489.2 2740.9,-532.7" fill="#f4f4f4" stroke="#b4b4b4" stroke-width="1" stroke-linejoin="round"/>
<polygon points="15678.9,31067.1 -4142.5,3833.4 65.5,327.1 1615.4,481.9 25008.1,31067.1" fill="#e2e2e2" stroke="#b4b4b4" stroke-width="1" stroke-linejoin="round"/>
<polygon points="-4142.5,3833.4 65.5,327.1 -558.6,-489.2 -33335.2,-2410.1 -35721.3,20473.6" fill="#f4f4f4" stroke="#b4b4b4" stroke-width="1" stroke-linejoin="round"/>
<polygon points="25008.1,31067.1 1615.4,481.9 2740.9,-532.7 28498.9,-2410.1" fill="#f4f4f4" stroke="#b4b4b4" stroke-width="1" stroke-linejoin="round"/>
<polygon points="15678.9,31067.1 -4142.5,3833.4 -35721.3,20473.6" fill="#f4f4f4" stroke="#b4b4b4" stroke-width="1" stroke-linejoin="round"/>
<polygon points="978.2,418.3 701.5,390.6 692.2,270.9 1008.8,297.8" fill="#9d9d9d" stroke="#606060" stroke-width="2" stroke-linejoin="round"/>
<polygon points="680.8,459.5 701.5,390.6 692.2,270.9 667.4,338.4" fill="#9d9d9d" stroke="#606060" stroke-width="2" stroke-linejoin="round"/>
<polygon points="981.7,492.3 978.2,418.3 1008.8,297.8 1016.0,371.1" fill="#9d9d9d" stroke="#606060" stroke-width="2" stroke-linejoin="round"/>
<polygon points="981.7,492.3 680.8,459.5 667.4,338.4 1016.0,371.1" fill="#9d9d9d" stroke="#606060" stroke-width="2" stroke-linejoin="round"/>
<polygon points="1016.0,371.1 667.4,338.4 692.2,270.9 1008.8,297.8" fill="#9d9d9d" stroke="#606060" stroke-width="2" stroke-linejoin="round"/>
<polygon points="955.5,464.1 862.2,454.3 872.6,366.8 976.5,376.7" fill="#bfe3cf" stroke="#2e8b57" stroke-width="3" stroke-linejoin="round"/>
<polygon points="855.6,526.5 862.2,454.3 872.6,366.8 866.2,439.5" fill="#bfe3cf" stroke="#2e8b57" stroke-width="3" stroke-linejoin="round"/>
<polygon points="956.8,538.1 955.5,464.1 976.5,376.7 980.0,451.3" fill="#bfe3cf" stroke="#2e8b57" stroke-width="3" stroke-linejoin="round"/>
<polygon points="956.8,538.1 855.6,526.5 866.2,439.5 980.0,451.3" fill="#bfe3cf" stroke="#2e8b57" stroke-width="3" stroke-linejoin="round"/>
<polygon points="980.0,451.3 866.2,439.5 872.6,366.8 976.5,376.7" fill="#bfe3cf" stroke="#2e8b57" stroke-width="3" stroke-linejoin="round"/>
<polygon points="1586.6,479.1 1294.9,449.9 1407.4,280.0 1768.7,308.5" fill="#c8c8c8" stroke="#606060" stroke-width="2" stroke-linejoin="round"/>
<polygon points="1328.4,530.0 1294.9,449.9 1407.4,280.0 1461.9,359.4" fill="#c8c8c8" stroke="#606060" stroke-width="2" stroke-linejoin="round"/>
<polygon points="1649.7,565.0 1586.6,479.1 1768.7,308.5 1869.8,395.1" fill="#c8c8c8" stroke="#606060" stroke-width="2" stroke-linejoin="round"/>
<polygon points="1649.7,565.0 1328.4,530.0 1461.9,359.4 1869.8,395.1" fill="#c8c8c8" stroke="#606060" stroke-width="2" stroke-linejoin="round"/>
<polygon points="1869.8,395.1 1461.9,359.4 1407.4,280.0 1768.7,308.5" fill="#c8c8c8" stroke="#606060" stroke-width="2" stroke-linejoin="round"/>
<polygon points="-1.0,258.8 8.3,252.3 -375.7,-250.0 -395.7,-247.7" fill="#c8c8c8" stroke="#606060" stroke-width="2" stroke-linejoin="round"/>
<polygon points="225.6,271.9 8.3,252.3 -375.7,-250.0 -61.1,-243.1" fill="#c8c8c8" stroke="#606060" stroke-width="2" stroke-linejoin="round"/>
<polygon points="218.2,278.9 -1.0,258.8 -395.7,-247.7 -77.1,-240.5" fill="#c8c8c8" stroke="#606060" stroke-width="2" stroke-linejoin="round"/>
<polygon points="218.2,278.9 225.6,271.9 -61.1,-243.1 -77.1,-240.5" fill="#c8c8c8" stroke="#606060" stroke-width="2" stroke-linejoin="round"/>
<polygon points="-77.1,-240.5 -395.7,-247.7 -375.7,-250.0 -61.1,-243.1" fill="#c8c8c8" stroke="#606060" stroke-width="2" stroke-linejoin="round"/>
<polygon points="1750.8,307.1 1424.0,281.3 1491.7,181.7 1856.5,206.1" fill="#606060" stroke="#606060" stroke-width="2" stroke-linejoin="round"/>
<polygon points="1472.8,350.0 1424.0,281.3 1491.7,181.7 1553.7,247.2" fill="#606060" stroke="#606060" stroke-width="2" stroke-linejoin="round"/>
<polygon points="1835.9,381.4 1750.8,307.1 1856.5,206.1 1964.2,277.5" fill="#606060" stroke="#606060" stroke-width="2" stroke-linejoin="round"/>
<polygon points="1835.9,381.4 1472.8,350.0 1553.7,247.2 1964.2,277.5" fill="#606060" stroke="#606060" stroke-width="2" stroke-linejoin="round"/>
<polygon points="1964.2,277.5 1553.7,247.2 1491.7,181.7 1856.5,206.1" fill="#606060" stroke="#606060" stroke-width="2" stroke-linejoin="round"/>
<polygon points="1626.9,497.0 1525.0,486.6 1765.2,245.7 1903.6,255.7" fill="#c8c8c8" stroke="#606060" stroke-width="2" stroke-linejoin="round"/>
<polygon points="1574.9,562.3 1525.0,486.6 1765.2,245.7 1860.4,320.4" fill="#c8c8c8" stroke="#606060" stroke-width="2" stroke-linejoin="round"/>
<polygon points="1686.2,574.5 1626.9,497.0 1903.6,255.7 2016.7,332.8" fill="#c8c8c8" stroke="#606060" stroke-width="2" stroke-linejoin="round"/>
<polygon points="1686.2,574.5 1574.9,562.3 1860.4,320.4 2016.7,332.8" fill="#c8c8c8" stroke="#606060" stroke-width="2" stroke-linejoin="round"/>
<polygon points="2016.7,332.8 1860.4,320.4 1765.2,245.7 1903.6,255.7" fill="#c8c8c8" stroke="#606060" stroke-width="2" stroke-linejoin="round"/>
<polygon points="-89.5,552.3 -188.9,539.0 -402.1,381.5 -283.9,395.1" fill="#9d9d9d" stroke="#606060" stroke-width="2" stroke-linejoin="round"/>
<polygon points="-395.0,710.7 -188.9,539.0 -402.1,381.5 -714.4,563.8" fill="#9d9d9d" stroke="#606060" stroke-width="2" stroke-linejoin="round"/>
<polygon points="-280.6,729.4 -89.5,552.3 -283.9,395.1 -574.8,584.5" fill="#9d9d9d" stroke="#606060" stroke-width="2" stroke-linejoin="round"/>
<polygon points="-280.6,729.4 -395.0,710.7 -714.4,563.8 -574.8,584.5" fill="#9d9d9d" stroke="#606060" stroke-width="2" stroke-linejoin="round"/>
<polygon points="-574.8,584.5 -714.4,563.8 -402.1,381.5 -283.9,395.1" fill="#9d9d9d" stroke="#606060" stroke-width="2" stroke-linejoin="round"/>
<polygon points="18.9,253.2 8.3,252.3 -375.7,-250.0 -360.6,-249.7" fill="#c8c8c8" stroke="#606060" stroke-width="2" stroke-linejoin="round"/>
<polygon points="-188.0,390.1 8.3,252.3 -375.7,-250.0 -843.0,-196.2" fill="#c8c8c8" stroke="#606060" stroke-width="2" stroke-linejoin="round"/>
<polygon points="-175.6,391.5 18.9,253.2 -360.6,-249.7 -824.0,-195.6" fill="#c8c8c8" stroke="#606060" stroke-width="2" stroke-linejoin="round"/>
<polygon points="-175.6,391.5 -188.0,390.1 -843.0,-196.2 -824.0,-195.6" fill="#c8c8c8" stroke="#606060" stroke-width="2" stroke-linejoin="round"/>
<polygon points="-824.0,-195.6 -843.0,-196.2 -375.7,-250.0 -360.6,-249.7" fill="#c8c8c8" stroke="#606060" stroke-width="2" stroke-linejoin="round"/>
<polygon points="218.2,278.9 225.6,271.9 -61.1,-243.1 -77.1,-240.5" fill="#c8c8c8" stroke="#606060" stroke-width="2" stroke-linejoin="round"/>
<polygon points="1243.3,363.9 225.6,271.9 -61.1,-243.1 1551.2,-207.4" fill="#c8c8c8" stroke="#606060" stroke-width="2" stroke-linejoin="round"/>
<polygon points="1246.9,372.9 218.2,278.9 -77.1,-240.5 1563.2,-203.6" fill="#c8c8c8" stroke="#606060" stroke-width="2" stroke-linejoin="round"/>
<polygon points="1246.9,372.9 1243.3,363.9 1551.2,-207.4 1563.2,-203.6" fill="#c8c8c8" stroke="#606060" stroke-width="2" stroke-linejoin="round"/>
<polygon points="1563.2,-203.6 -77.1,-240.5 -61.1,-243.1 1551.2,-207.4" fill="#c8c8c8" stroke="#606060" stroke-width="2" stroke-linejoin="round"/>
<polygon points="1709.9,605.5 1546.4,587.1 1730.8,431.0 1938.2,450.3" fill="#9d9d9d" stroke="#606060" stroke-width="2" stroke-linejoin="round"/>
<polygon points="1680.5,805.5 1546.4,587.1 1730.8,431.0 1959.0,671.1" fill="#9d9d9d" stroke="#606060" stroke-width="2" stroke-linejoin="round"/>
<polygon points="1884.0,833.1 1709.9,605.5 1938.2,450.3 2234.8,703.4" fill="#9d9d9d" stroke="#606060" stroke-width="2" stroke-linejoin="round"/>
<polygon points="1884.0,833.1 1680.5,805.5 1959.0,671.1 2234.8,703.4" fill="#9d9d9d" stroke="#606060" stroke-width="2" stroke-linejoin="round"/>
<polygon points="2234.8,703.4 1959.0,671.1 1730.8,431.0 1938.2,450.3" fill="#9d9d9d" stroke="#606060" stroke-width="2" stroke-linejoin="round"/>
<polygon points="-82.0,-261.1 -41.1,-266.7 -68.5,-317.8 -111.9,-314.2" fill="#9d9d9d" stroke="#606060" stroke-width="2" stroke-linejoin="round"/>
<polygon points="1516.7,-237.5 -41.1,-266.7 -68.5,-317.8 1547.8,-299.0" fill="#9d9d9d" stroke="#606060" stroke-width="2" stroke-linejoin="round"/>
<polygon points="1580.2,-293.5 -111.9,-314.2 -68.5,-317.8 1547.8,-299.0" fill="#9d9d9d" stroke="#606060" stroke-width="2" stroke-linejoin="round"/>
<polygon points="1546.2,-229.1 -82.0,-261.1 -111.9,-314.2 1580.2,-293.5" fill="#9d9d9d" stroke="#606060" stroke-width="2" stroke-linejoin="round"/>
<polygon points="1546.2,-229.1 1516.7,-237.5 1547.8,-299.0 1580.2,-293.5" fill="#9d9d9d" stroke="#606060" stroke-width="2" stroke-linejoin="round"/>
<polygon points="2083.8,378.5 2035.5,374.5 2425.9,106.0 2491.9,109.5" fill="#f3c9c4" stroke="#c0392b" stroke-width="3" stroke-linejoin="round"/>
<polygon points="2347.1,595.1 2035.5,374.5 2425.9,106.0 3031.9,312.9" fill="#f3c9c4" stroke="#c0392b" stroke-width="3" stroke-linejoin="round"/>
<polygon points="2411.3,601.8 2083.8,378.5 2491.9,109.5 3130.9,319.8" fill="#f3c9c4" stroke="#c0392b" stroke-width="3" stroke-linejoin="round"/>
<polygon points="2411.3,601.8 2347.1,595.1 3031.9,312.9 3130.9,319.8" fill="#f3c9c4" stroke="#c0392b" stroke-width="3" stroke-linejoin="round"/>
<polygon points="3130.9,319.8 3031.9,312.9 2425.9,106.0 2491.9,109.5" fill="#f3c9c4" stroke="#c0392b" stroke-width="3" stroke-linejoin="round"/>
<polygon points="-714.4,97.8 -848.1,87.6 -1404.0,-310.8 -1238.7,-308.2" fill="#606060" stroke="#606060" stroke-width="2" stroke-linejoin="round"/>
<polygon points="-1353.0,225.6 -848.1,87.6 -1404.0,-310.8 -2389.0,-272.7" fill="#606060" stroke="#606060" stroke-width="2" stroke-linejoin="round"/>
<polygon points="-1194.1,242.6 -714.4,97.8 -1238.7,-308.2 -2191.6,-267.4" fill="#606060" stroke="#606060" stroke-width="2" stroke-linejoin="round"/>
<polygon points="-1194.1,242.6 -1353.0,225.6 -2389.0,-272.7 -2191.6,-267.4" fill="#606060" stroke="#606060" stroke-width="2" stroke-linejoin="round"/>
<polygon points="-2191.6,-267.4 -2389.0,-272.7 -1404.0,-310.8 -1238.7,-308.2" fill="#606060" stroke="#606060" stroke-width="2" stroke-linejoin="round"/>
<polygon points="-958.2,1357.2 -1117.2,1312.6 -1799.3,1336.7 -1605.0,1399.0" fill="#606060" stroke="#606060" stroke-width="2" stroke-linejoin="round"/>
<polygon points="-1454.0,1593.2 -1117.2,1312.6 -1799.3,1336.7 -2448.4,1748.7" fill="#606060" stroke="#606060" stroke-width="2" stroke-linejoin="round"/>
<polygon points="-1278.4,1653.9 -958.2,1357.2 -1605.0,1399.0 -2235.1,1844.7" fill="#606060" stroke="#606060" stroke-width="2" stroke-linejoin="round"/>
<polygon points="-1278.4,1653.9 -1454.0,1593.2 -2448.4,1748.7 -2235.1,1844.7" fill="#606060" stroke="#606060" stroke-width="2" stroke-linejoin="round"/>
<polygon points="-2235.1,1844.7 -2448.4,1748.7 -1799.3,1336.7 -1605.0,1399.0" fill="#606060" stroke="#606060" stroke-width="2" stroke-linejoin="round"/>
<polygon points="-375.0,783.6 -464.0,768.2 -1846.4,232.3 -1693.9,250.3" fill="#c8c8c8" stroke="#606060" stroke-width="2" stroke-linejoin="round"/>
<polygon points="-916.4,1145.2 -464.0,768.2 -1846.4,232.3 -4831.2,911.3" fill="#c8c8c8" stroke="#606060" stroke-width="2" stroke-linejoin="round"/>
<polygon points="-806.1,1172.2 -375.0,783.6 -1693.9,250.3 -4686.2,990.8" fill="#c8c8c8" stroke="#606060" stroke-width="2" stroke-linejoin="round"/>
<polygon points="-806.1,1172.2 -916.4,1145.2 -4831.2,911.3 -4686.2,990.8" fill="#c8c8c8" stroke="#606060" stroke-width="2" stroke-linejoin="round"/>
<polygon points="-4686.2,990.8 -4831.2,911.3 -1846.4,232.3 -1693.9,250.3" fill="#c8c8c8" stroke="#606060" stroke-width="2" stroke-linejoin="round"/>
<polygon points="1906.6,862.7 1647.1,826.8 2896.3,231.2 3644.1,278.0" fill="#292929" stroke="#606060" stroke-width="2" stroke-linejoin="round"/>
<polygon points="1713.0,941.3 1647.1,826.8 2896.3,231.2 3405.5,395.9" fill="#292929" stroke="#606060" stroke-width="2" stroke-linejoin="round"/>
<polygon points="1999.7,984.4 1906.6,862.7 3644.1,278.0 4414.9,471.6" fill="#292929" stroke="#606060" stroke-width="2" stroke-linejoin="round"/>
<polygon points="1999.7,984.4 1713.0,941.3 3405.5,395.9 4414.9,471.6" fill="#292929" stroke="#606060" stroke-width="2" stroke-linejoin="round"/>
<polygon points="4414.9,471.6 3405.5,395.9 2896.3,231.2 3644.1,278.0" fill="#292929" stroke="#606060" stroke-width="2" stroke-linejoin="round"/>
<polygon points="-1807.7,2217.8 -2058.2,2096.6 -3613.1,2564.7 -3334.2,2793.8" fill="#c8c8c8" stroke="#606060" stroke-width="2" stroke-linejoin="round"/>
<polygon points="-3651.4,3424.2 -2058.2,2096.6 -3613.1,2564.7 -8913.9,6018.1" fill="#c8c8c8" stroke="#606060" stroke-width="2" stroke-linejoin="round"/>
<polygon points="-3379.0,3715.8 -1807.7,2217.8 -3334.2,2793.8 -9224.1,7197.1" fill="#c8c8c8" stroke="#606060" stroke-width="2" stroke-linejoin="round"/>
<polygon points="-3379.0,3715.8 -3651.4,3424.2 -8913.9,6018.1 -9224.1,7197.1" fill="#c8c8c8" stroke="#606060" stroke-width="2" stroke-linejoin="round"/>
<polygon points="-9224.1,7197.1 -8913.9,6018.1 -3613.1,2564.7 -3334.2,2793.8" fill="#c8c8c8" stroke="#606060" stroke-width="2" stroke-linejoin="round"/>
<polygon points="2068.8,1074.8 2030.9,1068.7 4533.5,717.8 4678.4,731.6" fill="#ffffff" stroke="#606060" stroke-width="2" stroke-linejoin="round"/>
<polygon points="2414.1,1585.1 2030.9,1068.7 4533.5,717.8 16914.1,4573.5" fill="#ffffff" stroke="#606060" stroke-width="2" stroke-linejoin="round"/>
<polygon points="2467.6,1596.1 2068.8,1074.8 4678.4,731.6 18294.9,4858.1" fill="#ffffff" stroke="#606060" stroke-width="2" stroke-linejoin="round"/>
<polygon points="2467.6,1596.1 2414.1,1585.1 16914.1,4573.5 18294.9,4858.1" fill="#ffffff" stroke="#606060" stroke-width="2" stroke-linejoin="round"/>
<polygon points="18294.9,4858.1 16914.1,4573.5 4533.5,717.8 4678.4,731.6" fill="#ffffff" stroke="#606060" stroke-width="2" stroke-linejoin="round"/>
<polygon points="-2321.5,2386.2 -2371.6,2357.8 -35038.7,13927.3 -34107.4,14119.2" fill="#f3c9c4" stroke="#c0392b" stroke-width="3" stroke-linejoin="round"/>
<polygon points="-4142.5,3833.4 -2371.6,2357.8 -35038.7,13927.3 -35721.3,20473.6" fill="#f3c9c4" stroke="#c0392b" stroke-width="3" stroke-linejoin="round"/>
<polygon points="-4093.4,3900.8 -2321.5,2386.2 -34107.4,14119.2 -34790.1,20665.5" fill="#f3c9c4" stroke="#c0392b" stroke-width="3" stroke-linejoin="round"/>
<polygon points="-4093.4,3900.8 -4142.5,3833.4 -35721.3,20473.6 -34790.1,20665.5" fill="#f3c9c4" stroke="#c0392b" stroke-width="3" stroke-linejoin="round"/>
<polygon points="-2115.8,3001.9 -2623.2,2663.9 -5239.7,3758.1 -4815.9,4646.1" fill="#c8c8c8" stroke="#606060" stroke-width="2" stroke-linejoin="round"/>
<polygon points="-4080.9,3918.0 -2623.2,2663.9 -5239.7,3758.1 -11784.2,8163.3" fill="#c8c8c8" stroke="#606060" stroke-width="2" stroke-linejoin="round"/>
<polygon points="-3569.3,4620.9 -2115.8,3001.9 -4815.9,4646.1 -14374.2,13028.6" fill="#c8c8c8" stroke="#606060" stroke-width="2" stroke-linejoin="round"/>
<polygon points="-3569.3,4620.9 -4080.9,3918.0 -11784.2,8163.3 -14374.2,13028.6" fill="#c8c8c8" stroke="#606060" stroke-width="2" stroke-linejoin="round"/>
<polygon points="-14374.2,13028.6 -11784.2,8163.3 -5239.7,3758.1 -4815.9,4646.1" fill="#c8c8c8" stroke="#606060" stroke-width="2" stroke-linejoin="round"/>
<polygon points="-1895.7,3556.3 -2155.7,3363.2 -4017.1,4711.3 -3738.8,5155.0" fill="#606060" stroke="#606060" stroke-width="2" stroke-linejoin="round"/>
<polygon points="-3391.1,4865.7 -2155.7,3363.2 -4017.1,4711.3 -8357.9,9188.7" fill="#606060" stroke="#606060" stroke-width="2" stroke-linejoin="round"/>
<polygon points="-3110.2,5251.6 -1895.7,3556.3 -3738.8,5155.0 -8557.6,10878.1" fill="#606060" stroke="#606060" stroke-width="2" stroke-linejoin="round"/>
<polygon points="-3110.2,5251.6 -3391.1,4865.7 -8357.9,9188.7 -8557.6,10878.1" fill="#606060" stroke="#606060" stroke-width="2" stroke-linejoin="round"/>
<polygon points="-8557.6,10878.1 -8357.9,9188.7 -4017.1,4711.3 -3738.8,5155.0" fill="#606060" stroke="#606060" stroke-width="2" stroke-linejoin="round"/>
<polygon points="4103.8,3735.5 3527.4,3525.0 22883.5,19512.2 26142.9,20184.0" fill="#606060" stroke="#606060" stroke-width="2" stroke-linejoin="round"/>
<polygon points="4623.3,5187.9 3527.4,3525.0 22883.5,19512.2 22473.9,23440.0" fill="#606060" stroke="#606060" stroke-width="2" stroke-linejoin="round"/>
<polygon points="5548.5,5624.4 4103.8,3735.5 26142.9,20184.0 25733.4,24111.8" fill="#606060" stroke="#606060" stroke-width="2" stroke-linejoin="round"/>
<polygon points="5548.5,5624.4 4623.3,5187.9 22473.9,23440.0 25733.4,24111.8" fill="#606060" stroke="#606060" stroke-width="2" stroke-linejoin="round"/>
<polygon points="-3907.5,2142.2 -3946.4,2112.4 -8015.4,2860.3 -8033.1,2933.1" fill="#9d9d9d" stroke="#606060" stroke-width="2" stroke-linejoin="round"/>
<polygon points="-7992.0,4193.8 -3946.4,2112.4 -8015.4,2860.3 -34906.0,12654.7 -34970.5,13272.6" fill="#9d9d9d" stroke="#606060" stroke-width="2" stroke-linejoin="round"/>
<polygon points="-8008.8,4294.4 -3907.5,2142.2 -8033.1,2933.1 -34192.6,12654.7 -34272.0,13416.6" fill="#9d9d9d" stroke="#606060" stroke-width="2" stroke-linejoin="round"/>
<polygon points="-8008.8,4294.4 -7992.0,4193.8 -34970.5,13272.6 -34272.0,13416.6" fill="#9d9d9d" stroke="#606060" stroke-width="2" stroke-linejoin="round"/>
<polygon points="-34906.0,12654.7 -8015.4,2860.3 -8033.1,2933.1 -34192.6,12654.7" fill="#9d9d9d" stroke="#606060" stroke-width="2" stroke-linejoin="round"/>
<polygon points="976.7,3665.4 -733.7,2817.2 -2358.4,4517.3 1375.8,8291.9" fill="#9d9d9d" stroke="#606060" stroke-width="2" stroke-linejoin="round"/>
<polygon points="-2462.3,6141.8 -733.7,2817.2 -2358.4,4517.3 -14549.2,22697.8 -14767.5,24792.2" fill="#9d9d9d" stroke="#606060" stroke-width="2" stroke-linejoin="round"/>
<polygon points="1043.0,10958.0 976.7,3665.4 1375.8,8291.9 2098.5,22697.8 1529.8,28151.0" fill="#9d9d9d" stroke="#606060" stroke-width="2" stroke-linejoin="round"/>
<polygon points="1043.0,10958.0 -2462.3,6141.8 -14767.5,24792.2 1529.8,28151.0" fill="#9d9d9d" stroke="#606060" stroke-width="2" stroke-linejoin="round"/>
<polygon points="-14549.2,22697.8 -2358.4,4517.3 1375.8,8291.9 2098.5,22697.8" fill="#9d9d9d" stroke="#606060" stroke-width="2" stroke-linejoin="round"/>
<polygon points="3397.6,2812.1 3090.8,2719.3 8147.3,5926.9 9700.6,6566.4" fill="#606060" stroke="#606060" stroke-width="2" stroke-linejoin="round"/>
<polygon points="3554.5,3392.0 3090.8,2719.3 8147.3,5926.9 17449.1,14094.0" fill="#606060" stroke="#606060" stroke-width="2" stroke-linejoin="round"/>
<polygon points="3946.8,3530.1 3397.6,2812.1 9700.6,6566.4 24016.4,17952.2" fill="#606060" stroke="#606060" stroke-width="2" stroke-linejoin="round"/>
<polygon points="3946.8,3530.1 3554.5,3392.0 17449.1,14094.0 24016.4,17952.2" fill="#606060" stroke="#606060" stroke-width="2" stroke-linejoin="round"/>
<polygon points="24016.4,17952.2 17449.1,14094.0 8147.3,5926.9 9700.6,6566.4" fill="#606060" stroke="#606060" stroke-width="2" stroke-linejoin="round"/>
<polygon points="2615.5,1789.6 2381.7,1737.5 12008.9,4670.7 15823.4,5676.7" fill="#c8c8c8" stroke="#606060" stroke-width="2" stroke-linejoin="round"/>
<polygon points="2915.4,2529.1 2381.7,1737.5 12008.9,4670.7 24318.5,10311.3 23826.9,15025.7" fill="#c8c8c8" stroke="#606060" stroke-width="2" stroke-linejoin="round"/>
<polygon points="3256.6,2627.7 2915.4,2529.1 23826.9,15025.7 26620.8,15601.6" fill="#c8c8c8" stroke="#606060" stroke-width="2" stroke-linejoin="round"/>
<polygon points="3256.6,2627.7 2615.5,1789.6 15823.4,5676.7 27172.4,10311.3 26620.8,15601.6" fill="#c8c8c8" stroke="#606060" stroke-width="2" stroke-linejoin="round"/>
<polygon points="24318.5,10311.3 12008.9,4670.7 15823.4,5676.7 27172.4,10311.3" fill="#c8c8c8" stroke="#606060" stroke-width="2" stroke-linejoin="round"/>
<polygon points="3628.2,6828.4 1427.8,5362.6 4370.0,23721.1 13217.2,25544.5" fill="#9d9d9d" stroke="#606060" stroke-width="2" stroke-linejoin="round"/>
<polygon points="2014.5,12292.8 1427.8,5362.6 4370.0,23721.1 3858.0,28630.8" fill="#9d9d9d" stroke="#606060" stroke-width="2" stroke-linejoin="round"/>
<polygon points="9468.2,22533.9 3628.2,6828.4 13217.2,25544.5 12705.2,30454.2" fill="#9d9d9d" stroke="#606060" stroke-width="2" stroke-linejoin="round"/>
<polygon points="9468.2,22533.9 2014.5,12292.8 3858.0,28630.8 12705.2,30454.2" fill="#9d9d9d" stroke="#606060" stroke-width="2" stroke-linejoin="round"/>
<polygon points="6142.4,6400.8 4781.6,5708.3 21440.2,24230.1 25631.0,25093.8" fill="#9d9d9d" stroke="#606060" stroke-width="2" stroke-linejoin="round"/>
<polygon points="25008.1,31067.1 6142.4,6400.8 25631.0,25093.8" fill="#9d9d9d" stroke="#606060" stroke-width="2" stroke-linejoin="round"/>
<polygon points="17759.1,26346.7 4781.6,5708.3 21440.2,24230.1 20757.6,30776.4" fill="#9d9d9d" stroke="#606060" stroke-width="2" stroke-linejoin="round"/>
<polygon points="22168.1,31067.1 17759.1,26346.7 20757.6,30776.4" fill="#9d9d9d" stroke="#606060" stroke-width="2" stroke-linejoin="round"/>
<polygon points="8608.3,10146.0 4575.9,7459.7 16011.0,26120.3 24159.7,27799.7" fill="#c8c8c8" stroke="#606060" stroke-width="2" stroke-linejoin="round"/>
<polygon points="15174.8,30374.4 4575.9,7459.7 16011.0,26120.3 15499.0,31030.0" fill="#c8c8c8" stroke="#606060" stroke-width="2" stroke-linejoin="round"/>
<polygon points="23819.0,31067.1 8608.3,10146.0 24159.7,27799.7" fill="#c8c8c8" stroke="#606060" stroke-width="2" stroke-linejoin="round"/>
<polygon points="15678.9,31067.1 15174.8,30374.4 15499.0,31030.0" fill="#c8c8c8" stroke="#606060" stroke-width="2" stroke-linejoin="round"/>
<path d="M66 327L-559 -489" stroke="#b4b4b4" stroke-width="4"/>
<path d="M1615 482L2741 -533" stroke="#b4b4b4" stroke-width="4"/>
</g></svg>