<svg xmlns="http://www.w3.org/2000/svg" width="1536" height="864" viewBox="0 0 1536 864"><rect width="1536" height="864" fill="#ffffff"/>
<clipPath id="fr"><rect width="1536" height="864"/></clipPath>
<g clip-path="url(#fr)">
<polygon points="-493.8,568.2 1936.4,568.2 2987.0,-922.7 -1628.5,-922.7" fill="#f4f4f4" stroke="#b4b4b4" stroke-width="1" stroke-linejoin="round"/>
<polygon points="-493.8,568.2 1936.4,568.2 30181.5,12999.8 -30998.6,12999.8" fill="#e2e2e2" stroke="#b4b4b4" stroke-width="1" stroke-linejoin="round"/>
<polygon points="1936.4,568.2 30181.5,12999.8 30181.5,-12891.9 2987.0,-922.7" fill="#f4f4f4" stroke="#b4b4b4" stroke-width="1" stroke-linejoin="round"/>
<polygon points="-493.8,568.2 -30998.6,12999.8 -30998.6,-12891.9 -1628.5,-922.7" fill="#f4f4f4" stroke="#b4b4b4" stroke-width="1" stroke-linejoin="round"/>
<polygon points="1338.2,568.2 1469.0,568.2 1526.5,432.3 1384.9,432.3" fill="#606060" stroke="#606060" stroke-width="2" stroke-linejoin="round"/>
<polygon points="1338.2,568.2 1418.7,640.8 1480.3,490.8 1384.9,432.3" fill="#606060" stroke="#606060" stroke-width="2" stroke-linejoin="round"/>
<polygon points="1469.0,568.2 1568.0,640.8 1643.8,490.8 1526.5,432.3" fill="#606060" stroke="#606060" stroke-width="2" stroke-linejoin="round"/>
<polygon points="1384.9,432.3 1526.5,432.3 1643.8,490.8 1480.3,490.8" fill="#606060" stroke="#606060" stroke-width="2" stroke-linejoin="round"/>
<polygon points="1418.7,640.8 1568.0,640.8 1643.8,490.8 1480.3,490.8" fill="#606060" stroke="#606060" stroke-width="2" stroke-linejoin="round"/>
<polygon points="1562.5,568.2 1889.6,568.2 2020.1,375.4 1654.9,375.4" fill="#c8c8c8" stroke="#606060" stroke-width="2" stroke-linejoin="round"/>
<polygon points="1562.5,568.2 1707.9,662.3 1840.0,442.5 1654.9,375.4" fill="#c8c8c8" stroke="#606060" stroke-width="2" stroke-linejoin="round"/>
<polygon points="1889.6,568.2 2094.9,662.3 2281.4,442.5 2020.1,375.4" fill="#c8c8c8" stroke="#606060" stroke-width="2" stroke-linejoin="round"/>
<polygon points="1654.9,375.4 2020.1,375.4 2281.4,442.5 1840.0,442.5" fill="#c8c8c8" stroke="#606060" stroke-width="2" stroke-linejoin="round"/>
<polygon points="1707.9,662.3 2094.9,662.3 2281.4,442.5 1840.0,442.5" fill="#c8c8c8" stroke="#606060" stroke-width="2" stroke-linejoin="round"/>
<polygon points="-7.8,568.2 347.4,568.2 293.5,355.6 -107.3,355.6" fill="#9d9d9d" stroke="#606060" stroke-width="2" stroke-linejoin="round"/>
<polygon points="-7.8,568.2 -149.8,662.3 -292.3,419.4 -107.3,355.6" fill="#9d9d9d" stroke="#606060" stroke-width="2" stroke-linejoin="round"/>
<polygon points="347.4,568.2 270.4,662.3 193.1,419.4 293.5,355.6" fill="#9d9d9d" stroke="#606060" stroke-width="2" stroke-linejoin="round"/>
<polygon points="-107.3,355.6 293.5,355.6 193.1,419.4 -292.3,419.4" fill="#9d9d9d" stroke="#606060" stroke-width="2" stroke-linejoin="round"/>
<polygon points="-149.8,662.3 270.4,662.3 193.1,419.4 -292.3,419.4" fill="#9d9d9d" stroke="#606060" stroke-width="2" stroke-linejoin="round"/>
<polygon points="492.4,345.6 1043.6,345.6 1069.6,168.8 466.4,168.8" fill="#606060" stroke="#606060" stroke-width="2" stroke-linejoin="round"/>
<polygon points="492.4,345.6 471.5,367.6 441.4,178.4 466.4,168.8" fill="#606060" stroke="#606060" stroke-width="2" stroke-linejoin="round"/>
<polygon points="1043.6,345.6 1064.5,367.6 1094.6,178.4 1069.6,168.8" fill="#606060" stroke="#606060" stroke-width="2" stroke-linejoin="round"/>
<polygon points="471.5,367.6 1064.5,367.6 1094.6,178.4 441.4,178.4" fill="#606060" stroke="#606060" stroke-width="2" stroke-linejoin="round"/>
<polygon points="466.4,168.8 1069.6,168.8 1094.6,178.4 441.4,178.4" fill="#606060" stroke="#606060" stroke-width="2" stroke-linejoin="round"/>
<polygon points="-548.1,590.3 -372.7,590.3 -540.7,349.3 -742.0,349.3" fill="#9d9d9d" stroke="#606060" stroke-width="2" stroke-linejoin="round"/>
<polygon points="-548.1,590.3 -909.0,737.4 -1237.0,446.1 -742.0,349.3" fill="#9d9d9d" stroke="#606060" stroke-width="2" stroke-linejoin="round"/>
<polygon points="-372.7,590.3 -685.4,737.4 -969.6,446.1 -540.7,349.3" fill="#9d9d9d" stroke="#606060" stroke-width="2" stroke-linejoin="round"/>
<polygon points="-742.0,349.3 -540.7,349.3 -969.6,446.1 -1237.0,446.1" fill="#9d9d9d" stroke="#606060" stroke-width="2" stroke-linejoin="round"/>
<polygon points="-909.0,737.4 -685.4,737.4 -969.6,446.1 -1237.0,446.1" fill="#9d9d9d" stroke="#606060" stroke-width="2" stroke-linejoin="round"/>
<polygon points="-447.1,568.2 -120.0,568.2 -395.4,53.9 -824.0,53.9" fill="#c8c8c8" stroke="#606060" stroke-width="2" stroke-linejoin="round"/>
<polygon points="-447.1,568.2 -669.5,662.3 -1228.7,53.9 -824.0,53.9" fill="#c8c8c8" stroke="#606060" stroke-width="2" stroke-linejoin="round"/>
<polygon points="-120.0,568.2 -282.5,662.3 -691.1,53.9 -395.4,53.9" fill="#c8c8c8" stroke="#606060" stroke-width="2" stroke-linejoin="round"/>
<polygon points="-669.5,662.3 -282.5,662.3 -691.1,53.9 -1228.7,53.9" fill="#c8c8c8" stroke="#606060" stroke-width="2" stroke-linejoin="round"/>
<polygon points="-824.0,53.9 -395.4,53.9 -691.1,53.9 -1228.7,53.9" fill="#c8c8c8" stroke="#606060" stroke-width="2" stroke-linejoin="round"/>
<polygon points="440.9,568.2 1095.1,568.2 1139.1,345.6 396.9,345.6" fill="#9d9d9d" stroke="#606060" stroke-width="2" stroke-linejoin="round"/>
<polygon points="440.9,568.2 327.2,746.8 243.5,466.1 396.9,345.6" fill="#9d9d9d" stroke="#606060" stroke-width="2" stroke-linejoin="round"/>
<polygon points="1095.1,568.2 1208.8,746.8 1292.5,466.1 1139.1,345.6" fill="#9d9d9d" stroke="#606060" stroke-width="2" stroke-linejoin="round"/>
<polygon points="396.9,345.6 1139.1,345.6 1292.5,466.1 243.5,466.1" fill="#9d9d9d" stroke="#606060" stroke-width="2" stroke-linejoin="round"/>
<polygon points="327.2,746.8 1208.8,746.8 1292.5,466.1 243.5,466.1" fill="#9d9d9d" stroke="#606060" stroke-width="2" stroke-linejoin="round"/>
<polygon points="1791.7,590.3 1986.6,590.3 2135.2,390.9 1916.4,390.9" fill="#c8c8c8" stroke="#606060" stroke-width="2" stroke-linejoin="round"/>
<polygon points="1791.7,590.3 2109.1,756.6 2331.6,512.7 1916.4,390.9" fill="#c8c8c8" stroke="#606060" stroke-width="2" stroke-linejoin="round"/>
<polygon points="1986.6,590.3 2364.5,756.6 2629.5,512.7 2135.2,390.9" fill="#c8c8c8" stroke="#606060" stroke-width="2" stroke-linejoin="round"/>
<polygon points="1916.4,390.9 2135.2,390.9 2629.5,512.7 2331.6,512.7" fill="#c8c8c8" stroke="#606060" stroke-width="2" stroke-linejoin="round"/>
<polygon points="2109.1,756.6 2364.5,756.6 2629.5,512.7 2331.6,512.7" fill="#c8c8c8" stroke="#606060" stroke-width="2" stroke-linejoin="round"/>
<polygon points="-158.0,293.7 299.5,293.7 166.8,-253.7 -420.3,-253.7" fill="#ffffff" stroke="#606060" stroke-width="2" stroke-linejoin="round"/>
<polygon points="299.5,293.7 288.0,299.6 147.7,-263.5 166.8,-253.7" fill="#ffffff" stroke="#606060" stroke-width="2" stroke-linejoin="round"/>
<polygon points="-158.0,293.7 -180.8,299.6 -458.2,-263.5 -420.3,-253.7" fill="#ffffff" stroke="#606060" stroke-width="2" stroke-linejoin="round"/>
<polygon points="-180.8,299.6 288.0,299.6 147.7,-263.5 -458.2,-263.5" fill="#ffffff" stroke="#606060" stroke-width="2" stroke-linejoin="round"/>
<polygon points="-420.3,-253.7 166.8,-253.7 147.7,-263.5 -458.2,-263.5" fill="#ffffff" stroke="#606060" stroke-width="2" stroke-linejoin="round"/>
<polygon points="1371.5,-152.6 1505.6,-152.6 1559.3,-326.0 1415.5,-326.0" fill="#606060" stroke="#606060" stroke-width="2" stroke-linejoin="round"/>
<polygon points="1371.5,-152.6 1430.3,-172.8 1483.6,-366.0 1415.5,-326.0" fill="#606060" stroke="#606060" stroke-width="2" stroke-linejoin="round"/>
<polygon points="1505.6,-152.6 1577.5,-172.8 1642.7,-366.0 1559.3,-326.0" fill="#606060" stroke="#606060" stroke-width="2" stroke-linejoin="round"/>
<polygon points="1415.5,-326.0 1559.3,-326.0 1642.7,-366.0 1483.6,-366.0" fill="#606060" stroke="#606060" stroke-width="2" stroke-linejoin="round"/>
<polygon points="1430.3,-172.8 1577.5,-172.8 1642.7,-366.0 1483.6,-366.0" fill="#606060" stroke="#606060" stroke-width="2" stroke-linejoin="round"/>
<polygon points="421.5,106.5 1114.5,106.5 1204.3,-442.7 331.7,-442.7" fill="#c8c8c8" stroke="#606060" stroke-width="2" stroke-linejoin="round"/>
<polygon points="421.5,106.5 412.1,108.0 316.7,-459.8 331.7,-442.7" fill="#c8c8c8" stroke="#606060" stroke-width="2" stroke-linejoin="round"/>
<polygon points="1114.5,106.5 1123.9,108.0 1219.3,-459.8 1204.3,-442.7" fill="#c8c8c8" stroke="#606060" stroke-width="2" stroke-linejoin="round"/>
<polygon points="412.1,108.0 1123.9,108.0 1219.3,-459.8 316.7,-459.8" fill="#c8c8c8" stroke="#606060" stroke-width="2" stroke-linejoin="round"/>
<polygon points="331.7,-442.7 1204.3,-442.7 1219.3,-459.8 316.7,-459.8" fill="#c8c8c8" stroke="#606060" stroke-width="2" stroke-linejoin="round"/>
<polygon points="-980.9,766.7 -799.5,766.7 -1710.2,-81.3 -1997.0,-81.3" fill="#606060" stroke="#606060" stroke-width="2" stroke-linejoin="round"/>
<polygon points="-980.9,766.7 -1343.0,914.2 -3025.9,-131.6 -1997.0,-81.3" fill="#606060" stroke="#606060" stroke-width="2" stroke-linejoin="round"/>
<polygon points="-799.5,766.7 -1124.1,914.2 -2632.5,-131.6 -1710.2,-81.3" fill="#606060" stroke="#606060" stroke-width="2" stroke-linejoin="round"/>
<polygon points="-1343.0,914.2 -1124.1,914.2 -2632.5,-131.6 -3025.9,-131.6" fill="#606060" stroke="#606060" stroke-width="2" stroke-linejoin="round"/>
<polygon points="-1997.0,-81.3 -1710.2,-81.3 -2632.5,-131.6 -3025.9,-131.6" fill="#606060" stroke="#606060" stroke-width="2" stroke-linejoin="round"/>
<polygon points="2690.4,262.0 2737.7,262.0 3047.0,-46.4 2992.3,-46.4" fill="#9d9d9d" stroke="#606060" stroke-width="2" stroke-linejoin="round"/>
<polygon points="2690.4,262.0 3497.2,349.3 4148.5,-98.5 2992.3,-46.4" fill="#9d9d9d" stroke="#606060" stroke-width="2" stroke-linejoin="round"/>
<polygon points="2737.7,262.0 3564.3,349.3 4231.6,-98.5 3047.0,-46.4" fill="#9d9d9d" stroke="#606060" stroke-width="2" stroke-linejoin="round"/>
<polygon points="2992.3,-46.4 3047.0,-46.4 4231.6,-98.5 4148.5,-98.5" fill="#9d9d9d" stroke="#606060" stroke-width="2" stroke-linejoin="round"/>
<polygon points="3497.2,349.3 3564.3,349.3 4231.6,-98.5 4148.5,-98.5" fill="#9d9d9d" stroke="#606060" stroke-width="2" stroke-linejoin="round"/>
<polygon points="2565.5,961.2 2829.4,961.2 3346.3,644.0 3016.2,644.0" fill="#606060" stroke="#606060" stroke-width="2" stroke-linejoin="round"/>
<polygon points="2829.4,961.2 3468.1,1242.3 4429.7,892.0 3346.3,644.0" fill="#606060" stroke="#606060" stroke-width="2" stroke-linejoin="round"/>
<polygon points="2565.5,961.2 3122.5,1242.3 3961.0,892.0 3016.2,644.0" fill="#606060" stroke="#606060" stroke-width="2" stroke-linejoin="round"/>
<polygon points="3016.2,644.0 3346.3,644.0 4429.7,892.0 3961.0,892.0" fill="#606060" stroke="#606060" stroke-width="2" stroke-linejoin="round"/>
<polygon points="3122.5,1242.3 3468.1,1242.3 4429.7,892.0 3961.0,892.0" fill="#606060" stroke="#606060" stroke-width="2" stroke-linejoin="round"/>
<polygon points="-1418.5,945.0 -1256.5,945.0 -2039.7,449.4 -2264.3,449.4" fill="#606060" stroke="#606060" stroke-width="2" stroke-linejoin="round"/>
<polygon points="-1418.5,945.0 -1837.6,1115.8 -3135.0,562.9 -2264.3,449.4" fill="#606060" stroke="#606060" stroke-width="2" stroke-linejoin="round"/>
<polygon points="-1256.5,945.0 -1644.6,1115.8 -2845.9,562.9 -2039.7,449.4" fill="#606060" stroke="#606060" stroke-width="2" stroke-linejoin="round"/>
<polygon points="-1837.6,1115.8 -1644.6,1115.8 -2845.9,562.9 -3135.0,562.9" fill="#606060" stroke="#606060" stroke-width="2" stroke-linejoin="round"/>
<polygon points="-2264.3,449.4 -2039.7,449.4 -2845.9,562.9 -3135.0,562.9" fill="#606060" stroke="#606060" stroke-width="2" stroke-linejoin="round"/>
<polygon points="3972.8,1614.3 4313.2,1614.3 30181.5,-2850.2 27357.8,-2850.2" fill="#c8c8c8" stroke="#606060" stroke-width="2" stroke-linejoin="round"/>
<polygon points="3972.8,1614.3 27357.8,12999.8 27357.8,-2850.2" fill="#c8c8c8" stroke="#606060" stroke-width="2" stroke-linejoin="round"/>
<polygon points="4313.2,1614.3 30181.5,12999.8 30181.5,-2850.2" fill="#c8c8c8" stroke="#606060" stroke-width="2" stroke-linejoin="round"/>
<polygon points="-2015.4,1188.3 -1768.0,1188.3 -6427.1,-718.5 -7129.1,-718.5" fill="#c8c8c8" stroke="#606060" stroke-width="2" stroke-linejoin="round"/>
<polygon points="-1768.0,1188.3 -3885.6,2135.4 -28174.9,1662.1 -28174.9,-3053.1 -6427.1,-718.5" fill="#c8c8c8" stroke="#606060" stroke-width="2" stroke-linejoin="round"/>
<polygon points="-2015.4,1188.3 -4339.6,2135.4 -30998.6,1662.1 -30998.6,-3053.1 -7129.1,-718.5" fill="#c8c8c8" stroke="#606060" stroke-width="2" stroke-linejoin="round"/>
<polygon points="-4339.6,2135.4 -3885.6,2135.4 -28174.9,1662.1 -30998.6,1662.1" fill="#c8c8c8" stroke="#606060" stroke-width="2" stroke-linejoin="round"/>
<polygon points="-7129.1,-718.5 -6427.1,-718.5 -28174.9,-3053.1 -30998.6,-3053.1" fill="#c8c8c8" stroke="#606060" stroke-width="2" stroke-linejoin="round"/>
<polygon points="-6448.7,2994.9 -6288.3,2994.9 -30292.7,5610.3 -30998.6,5610.3" fill="#ffffff" stroke="#606060" stroke-width="2" stroke-linejoin="round"/>
<polygon points="-6448.7,2994.9 -30998.6,12999.8 -30998.6,5610.3" fill="#ffffff" stroke="#606060" stroke-width="2" stroke-linejoin="round"/>
<polygon points="-6288.3,2994.9 -30292.7,12999.8 -30292.7,5610.3" fill="#ffffff" stroke="#606060" stroke-width="2" stroke-linejoin="round"/>
</g></svg>