<svg xmlns="http://www.w3.org/2000/svg" width="1536" height="864" viewBox="0 0 1536 864"><rect width="1536" height="864" fill="#ffffff"/>
<clipPath id="fr"><rect width="1536" height="864"/></clipPath>
<g clip-path="url(#fr)">
<polygon points="699.2,215.1 120.0,352.9 -99.7,-120.4 684.7,-106.2" fill="#f4f4f4" stroke="#b4b4b4" stroke-width="1" stroke-linejoin="round"/>
<polygon points="699.2,215.1 1613.0,589.3 2154.5,-153.6 684.7,-106.2" fill="#f4f4f4" stroke="#b4b4b4" stroke-width="1" stroke-linejoin="round"/>
<polygon points="699.2,215.1 1613.0,589.3 771.3,2258.6 120.0,352.9" fill="#e2e2e2" stroke="#b4b4b4" stroke-width="1" stroke-linejoin="round"/>
<polygon points="120.0,352.9 771.3,2258.6 805.1,7430.5 -3188.4,-1748.5 -99.7,-120.4" fill="#f4f4f4" stroke="#b4b4b4" stroke-width="1" stroke-linejoin="round"/>
<polygon points="1613.0,589.3 771.3,2258.6 805.1,7430.5 6738.4,-1748.5 2154.5,-153.6" fill="#f4f4f4" stroke="#b4b4b4" stroke-width="1" stroke-linejoin="round"/>
<polygon points="690.3,217.2 644.0,228.2 637.9,153.2 686.6,144.4" fill="#9d9d9d" stroke="#606060" stroke-width="2" stroke-linejoin="round"/>
<polygon points="690.3,217.2 719.3,229.3 716.9,154.1 686.6,144.4" fill="#9d9d9d" stroke="#606060" stroke-width="2" stroke-linejoin="round"/>
<polygon points="644.0,228.2 672.2,241.2 667.3,163.6 637.9,153.2" fill="#9d9d9d" stroke="#606060" stroke-width="2" stroke-linejoin="round"/>
<polygon points="719.3,229.3 672.2,241.2 667.3,163.6 716.9,154.1" fill="#9d9d9d" stroke="#606060" stroke-width="2" stroke-linejoin="round"/>
<polygon points="686.6,144.4 716.9,154.1 667.3,163.6 637.9,153.2" fill="#9d9d9d" stroke="#606060" stroke-width="2" stroke-linejoin="round"/>
<polygon points="646.5,239.3 614.8,247.2 610.1,200.8 642.8,193.9" fill="#bfe3cf" stroke="#2e8b57" stroke-width="3" stroke-linejoin="round"/>
<polygon points="646.5,239.3 666.6,248.9 663.4,202.4 642.8,193.9" fill="#bfe3cf" stroke="#2e8b57" stroke-width="3" stroke-linejoin="round"/>
<polygon points="614.8,247.2 634.4,257.2 630.2,209.8 610.1,200.8" fill="#bfe3cf" stroke="#2e8b57" stroke-width="3" stroke-linejoin="round"/>
<polygon points="666.6,248.9 634.4,257.2 630.2,209.8 663.4,202.4" fill="#bfe3cf" stroke="#2e8b57" stroke-width="3" stroke-linejoin="round"/>
<polygon points="642.8,193.9 663.4,202.4 630.2,209.8 610.1,200.8" fill="#bfe3cf" stroke="#2e8b57" stroke-width="3" stroke-linejoin="round"/>
<polygon points="707.0,218.3 673.0,226.5 663.6,76.1 701.2,71.5" fill="#c8c8c8" stroke="#606060" stroke-width="2" stroke-linejoin="round"/>
<polygon points="707.0,218.3 767.3,243.0 767.3,85.5 701.2,71.5" fill="#c8c8c8" stroke="#606060" stroke-width="2" stroke-linejoin="round"/>
<polygon points="673.0,226.5 732.2,252.7 728.3,91.0 663.6,76.1" fill="#c8c8c8" stroke="#606060" stroke-width="2" stroke-linejoin="round"/>
<polygon points="767.3,243.0 732.2,252.7 728.3,91.0 767.3,85.5" fill="#c8c8c8" stroke="#606060" stroke-width="2" stroke-linejoin="round"/>
<polygon points="701.2,71.5 767.3,85.5 728.3,91.0 663.6,76.1" fill="#c8c8c8" stroke="#606060" stroke-width="2" stroke-linejoin="round"/>
<polygon points="602.0,238.2 578.6,243.8 565.5,139.9 590.7,135.9" fill="#606060" stroke="#606060" stroke-width="2" stroke-linejoin="round"/>
<polygon points="602.0,238.2 616.8,245.8 606.3,141.4 590.7,135.9" fill="#606060" stroke="#606060" stroke-width="2" stroke-linejoin="round"/>
<polygon points="578.6,243.8 593.2,251.6 580.8,145.6 565.5,139.9" fill="#606060" stroke="#606060" stroke-width="2" stroke-linejoin="round"/>
<polygon points="616.8,245.8 593.2,251.6 580.8,145.6 606.3,141.4" fill="#606060" stroke="#606060" stroke-width="2" stroke-linejoin="round"/>
<polygon points="590.7,135.9 606.3,141.4 580.8,145.6 565.5,139.9" fill="#606060" stroke="#606060" stroke-width="2" stroke-linejoin="round"/>
<polygon points="636.8,229.9 607.0,237.0 588.3,61.3 621.9,57.7" fill="#606060" stroke="#606060" stroke-width="2" stroke-linejoin="round"/>
<polygon points="636.8,229.9 658.4,240.1 645.6,62.9 621.9,57.7" fill="#606060" stroke="#606060" stroke-width="2" stroke-linejoin="round"/>
<polygon points="607.0,237.0 628.2,247.6 611.3,66.7 588.3,61.3" fill="#606060" stroke="#606060" stroke-width="2" stroke-linejoin="round"/>
<polygon points="658.4,240.1 628.2,247.6 611.3,66.7 645.6,62.9" fill="#606060" stroke="#606060" stroke-width="2" stroke-linejoin="round"/>
<polygon points="621.9,57.7 645.6,62.9 611.3,66.7 588.3,61.3" fill="#606060" stroke="#606060" stroke-width="2" stroke-linejoin="round"/>
<polygon points="790.4,252.4 754.9,262.7 754.2,187.4 791.5,179.0" fill="#9d9d9d" stroke="#606060" stroke-width="2" stroke-linejoin="round"/>
<polygon points="790.4,252.4 872.9,286.2 878.6,206.8 791.5,179.0" fill="#9d9d9d" stroke="#606060" stroke-width="2" stroke-linejoin="round"/>
<polygon points="754.9,262.7 836.5,298.7 840.4,217.2 754.2,187.4" fill="#9d9d9d" stroke="#606060" stroke-width="2" stroke-linejoin="round"/>
<polygon points="791.5,179.0 878.6,206.8 840.4,217.2 754.2,187.4" fill="#9d9d9d" stroke="#606060" stroke-width="2" stroke-linejoin="round"/>
<polygon points="872.9,286.2 836.5,298.7 840.4,217.2 878.6,206.8" fill="#9d9d9d" stroke="#606060" stroke-width="2" stroke-linejoin="round"/>
<polygon points="570.6,245.7 588.1,255.2 563.1,48.0 544.1,43.8" fill="#c8c8c8" stroke="#606060" stroke-width="2" stroke-linejoin="round"/>
<polygon points="570.6,245.7 514.9,258.9 479.4,49.6 544.1,43.8" fill="#c8c8c8" stroke="#606060" stroke-width="2" stroke-linejoin="round"/>
<polygon points="588.1,255.2 531.4,269.3 497.0,54.3 563.1,48.0" fill="#c8c8c8" stroke="#606060" stroke-width="2" stroke-linejoin="round"/>
<polygon points="514.9,258.9 531.4,269.3 497.0,54.3 479.4,49.6" fill="#c8c8c8" stroke="#606060" stroke-width="2" stroke-linejoin="round"/>
<polygon points="544.1,43.8 563.1,48.0 497.0,54.3 479.4,49.6" fill="#c8c8c8" stroke="#606060" stroke-width="2" stroke-linejoin="round"/>
<polygon points="787.6,158.3 782.7,159.3 784.0,15.9 789.3,15.5" fill="#ffffff" stroke="#606060" stroke-width="2" stroke-linejoin="round"/>
<polygon points="787.6,158.3 885.3,187.2 897.2,28.5 789.3,15.5" fill="#ffffff" stroke="#606060" stroke-width="2" stroke-linejoin="round"/>
<polygon points="782.7,159.3 880.3,188.4 891.8,29.1 784.0,15.9" fill="#ffffff" stroke="#606060" stroke-width="2" stroke-linejoin="round"/>
<polygon points="789.3,15.5 897.2,28.5 891.8,29.1 784.0,15.9" fill="#ffffff" stroke="#606060" stroke-width="2" stroke-linejoin="round"/>
<polygon points="885.3,187.2 880.3,188.4 891.8,29.1 897.2,28.5" fill="#ffffff" stroke="#606060" stroke-width="2" stroke-linejoin="round"/>
<polygon points="494.4,263.8 498.3,266.4 453.6,20.9 449.4,20.0" fill="#ffffff" stroke="#606060" stroke-width="2" stroke-linejoin="round"/>
<polygon points="494.4,263.8 405.9,284.9 342.2,27.3 449.4,20.0" fill="#ffffff" stroke="#606060" stroke-width="2" stroke-linejoin="round"/>
<polygon points="498.3,266.4 409.4,287.8 345.7,28.4 453.6,20.9" fill="#ffffff" stroke="#606060" stroke-width="2" stroke-linejoin="round"/>
<polygon points="405.9,284.9 409.4,287.8 345.7,28.4 342.2,27.3" fill="#ffffff" stroke="#606060" stroke-width="2" stroke-linejoin="round"/>
<polygon points="449.4,20.0 453.6,20.9 345.7,28.4 342.2,27.3" fill="#ffffff" stroke="#606060" stroke-width="2" stroke-linejoin="round"/>
<polygon points="375.8,307.0 310.7,323.1 286.1,246.6 355.7,232.8" fill="#bfe3cf" stroke="#2e8b57" stroke-width="3" stroke-linejoin="round"/>
<polygon points="375.8,307.0 396.4,326.9 376.3,249.8 355.7,232.8" fill="#bfe3cf" stroke="#2e8b57" stroke-width="3" stroke-linejoin="round"/>
<polygon points="310.7,323.1 328.7,344.7 303.8,265.1 286.1,246.6" fill="#bfe3cf" stroke="#2e8b57" stroke-width="3" stroke-linejoin="round"/>
<polygon points="396.4,326.9 328.7,344.7 303.8,265.1 376.3,249.8" fill="#bfe3cf" stroke="#2e8b57" stroke-width="3" stroke-linejoin="round"/>
<polygon points="355.7,232.8 376.3,249.8 303.8,265.1 286.1,246.6" fill="#bfe3cf" stroke="#2e8b57" stroke-width="3" stroke-linejoin="round"/>
<polygon points="332.2,302.4 353.4,325.0 321.6,216.0 300.8,198.2" fill="#9d9d9d" stroke="#606060" stroke-width="2" stroke-linejoin="round"/>
<polygon points="332.2,302.4 218.0,329.6 175.4,219.6 300.8,198.2" fill="#9d9d9d" stroke="#606060" stroke-width="2" stroke-linejoin="round"/>
<polygon points="353.4,325.0 233.6,355.6 189.3,240.3 321.6,216.0" fill="#9d9d9d" stroke="#606060" stroke-width="2" stroke-linejoin="round"/>
<polygon points="218.0,329.6 233.6,355.6 189.3,240.3 175.4,219.6" fill="#9d9d9d" stroke="#606060" stroke-width="2" stroke-linejoin="round"/>
<polygon points="300.8,198.2 321.6,216.0 189.3,240.3 175.4,219.6" fill="#9d9d9d" stroke="#606060" stroke-width="2" stroke-linejoin="round"/>
<polygon points="382.1,290.5 343.1,299.8 259.5,14.4 308.3,11.6" fill="#292929" stroke="#606060" stroke-width="2" stroke-linejoin="round"/>
<polygon points="382.1,290.5 411.6,317.4 337.5,19.8 308.3,11.6" fill="#292929" stroke="#606060" stroke-width="2" stroke-linejoin="round"/>
<polygon points="343.1,299.8 370.6,328.0 285.3,23.1 259.5,14.4" fill="#292929" stroke="#606060" stroke-width="2" stroke-linejoin="round"/>
<polygon points="411.6,317.4 370.6,328.0 285.3,23.1 337.5,19.8" fill="#292929" stroke="#606060" stroke-width="2" stroke-linejoin="round"/>
<polygon points="308.3,11.6 337.5,19.8 285.3,23.1 259.5,14.4" fill="#292929" stroke="#606060" stroke-width="2" stroke-linejoin="round"/>
<polygon points="278.6,153.5 282.4,156.4 248.4,45.0 244.8,43.3" fill="#f3c9c4" stroke="#c0392b" stroke-width="3" stroke-linejoin="round"/>
<polygon points="278.6,153.5 166.1,169.4 121.5,52.4 244.8,43.3" fill="#f3c9c4" stroke="#c0392b" stroke-width="3" stroke-linejoin="round"/>
<polygon points="282.4,156.4 168.7,172.7 123.7,54.4 248.4,45.0" fill="#f3c9c4" stroke="#c0392b" stroke-width="3" stroke-linejoin="round"/>
<polygon points="166.1,169.4 168.7,172.7 123.7,54.4 121.5,52.4" fill="#f3c9c4" stroke="#c0392b" stroke-width="3" stroke-linejoin="round"/>
<polygon points="244.8,43.3 248.4,45.0 123.7,54.4 121.5,52.4" fill="#f3c9c4" stroke="#c0392b" stroke-width="3" stroke-linejoin="round"/>
<polygon points="196.7,334.7 134.1,349.6 59.2,184.5 131.8,174.2" fill="#c8c8c8" stroke="#606060" stroke-width="2" stroke-linejoin="round"/>
<polygon points="196.7,334.7 206.6,353.0 139.7,186.8 131.8,174.2" fill="#c8c8c8" stroke="#606060" stroke-width="2" stroke-linejoin="round"/>
<polygon points="134.1,349.6 141.5,369.2 63.8,198.1 59.2,184.5" fill="#c8c8c8" stroke="#606060" stroke-width="2" stroke-linejoin="round"/>
<polygon points="206.6,353.0 141.5,369.2 63.8,198.1 139.7,186.8" fill="#c8c8c8" stroke="#606060" stroke-width="2" stroke-linejoin="round"/>
<polygon points="131.8,174.2 139.7,186.8 63.8,198.1 59.2,184.5" fill="#c8c8c8" stroke="#606060" stroke-width="2" stroke-linejoin="round"/>
<polygon points="929.9,219.4 914.8,223.9 920.7,162.3 936.3,158.5" fill="#606060" stroke="#606060" stroke-width="2" stroke-linejoin="round"/>
<polygon points="929.9,219.4 1104.3,274.5 1120.2,204.6 936.3,158.5" fill="#606060" stroke="#606060" stroke-width="2" stroke-linejoin="round"/>
<polygon points="914.8,223.9 1089.4,280.7 1105.0,209.9 920.7,162.3" fill="#606060" stroke="#606060" stroke-width="2" stroke-linejoin="round"/>
<polygon points="936.3,158.5 1120.2,204.6 1105.0,209.9 920.7,162.3" fill="#606060" stroke="#606060" stroke-width="2" stroke-linejoin="round"/>
<polygon points="1104.3,274.5 1089.4,280.7 1105.0,209.9 1120.2,204.6" fill="#606060" stroke="#606060" stroke-width="2" stroke-linejoin="round"/>
<polygon points="897.5,296.3 835.1,318.7 839.2,230.1 905.0,211.6" fill="#9d9d9d" stroke="#606060" stroke-width="2" stroke-linejoin="round"/>
<polygon points="897.5,296.3 1115.7,385.7 1141.1,286.1 905.0,211.6" fill="#9d9d9d" stroke="#606060" stroke-width="2" stroke-linejoin="round"/>
<polygon points="905.0,211.6 1141.1,286.1 1076.2,315.6 839.2,230.1" fill="#9d9d9d" stroke="#606060" stroke-width="2" stroke-linejoin="round"/>
<polygon points="835.1,318.7 1053.7,420.4 1076.2,315.6 839.2,230.1" fill="#9d9d9d" stroke="#606060" stroke-width="2" stroke-linejoin="round"/>
<polygon points="1115.7,385.7 1053.7,420.4 1076.2,315.6 1141.1,286.1" fill="#9d9d9d" stroke="#606060" stroke-width="2" stroke-linejoin="round"/>
<polygon points="905.1,351.2 854.4,372.3 865.5,195.6 921.8,181.2" fill="#bfe3cf" stroke="#2e8b57" stroke-width="3" stroke-linejoin="round"/>
<polygon points="905.1,351.2 960.9,377.2 985.9,199.0 921.8,181.2" fill="#bfe3cf" stroke="#2e8b57" stroke-width="3" stroke-linejoin="round"/>
<polygon points="854.4,372.3 909.9,400.9 929.4,215.5 865.5,195.6" fill="#bfe3cf" stroke="#2e8b57" stroke-width="3" stroke-linejoin="round"/>
<polygon points="960.9,377.2 909.9,400.9 929.4,215.5 985.9,199.0" fill="#bfe3cf" stroke="#2e8b57" stroke-width="3" stroke-linejoin="round"/>
<polygon points="921.8,181.2 985.9,199.0 929.4,215.5 865.5,195.6" fill="#bfe3cf" stroke="#2e8b57" stroke-width="3" stroke-linejoin="round"/>
<polygon points="195.0,340.8 121.9,358.4 64.2,234.1 146.0,220.4" fill="#c8c8c8" stroke="#606060" stroke-width="2" stroke-linejoin="round"/>
<polygon points="195.0,340.8 227.9,402.9 174.2,269.3 146.0,220.4" fill="#c8c8c8" stroke="#606060" stroke-width="2" stroke-linejoin="round"/>
<polygon points="121.9,358.4 145.1,426.2 80.0,288.0 64.2,234.1" fill="#c8c8c8" stroke="#606060" stroke-width="2" stroke-linejoin="round"/>
<polygon points="146.0,220.4 174.2,269.3 80.0,288.0 64.2,234.1" fill="#c8c8c8" stroke="#606060" stroke-width="2" stroke-linejoin="round"/>
<polygon points="227.9,402.9 145.1,426.2 80.0,288.0 174.2,269.3" fill="#c8c8c8" stroke="#606060" stroke-width="2" stroke-linejoin="round"/>
<polygon points="929.5,136.4 924.3,137.6 938.9,-12.8 944.5,-13.2" fill="#c8c8c8" stroke="#606060" stroke-width="2" stroke-linejoin="round"/>
<polygon points="929.5,136.4 1138.5,184.3 1181.3,3.9 944.5,-13.2" fill="#c8c8c8" stroke="#606060" stroke-width="2" stroke-linejoin="round"/>
<polygon points="924.3,137.6 1133.5,186.0 1176.0,4.5 938.9,-12.8" fill="#c8c8c8" stroke="#606060" stroke-width="2" stroke-linejoin="round"/>
<polygon points="944.5,-13.2 1181.3,3.9 1176.0,4.5 938.9,-12.8" fill="#c8c8c8" stroke="#606060" stroke-width="2" stroke-linejoin="round"/>
<polygon points="1138.5,184.3 1133.5,186.0 1176.0,4.5 1181.3,3.9" fill="#c8c8c8" stroke="#606060" stroke-width="2" stroke-linejoin="round"/>
<polygon points="137.3,224.1 64.8,236.3 36.0,174.3 112.5,164.1" fill="#606060" stroke="#606060" stroke-width="2" stroke-linejoin="round"/>
<polygon points="137.3,224.1 161.5,268.8 134.0,201.7 112.5,164.1" fill="#606060" stroke="#606060" stroke-width="2" stroke-linejoin="round"/>
<polygon points="112.5,164.1 134.0,201.7 46.4,215.4 36.0,174.3" fill="#606060" stroke="#606060" stroke-width="2" stroke-linejoin="round"/>
<polygon points="64.8,236.3 79.1,285.0 46.4,215.4 36.0,174.3" fill="#606060" stroke="#606060" stroke-width="2" stroke-linejoin="round"/>
<polygon points="161.5,268.8 79.1,285.0 46.4,215.4 134.0,201.7" fill="#606060" stroke="#606060" stroke-width="2" stroke-linejoin="round"/>
<polygon points="1225.5,430.6 1198.1,450.0 1220.5,382.3 1248.4,364.5" fill="#606060" stroke="#606060" stroke-width="2" stroke-linejoin="round"/>
<polygon points="1225.5,430.6 1293.8,458.6 1321.6,390.2 1248.4,364.5" fill="#606060" stroke="#606060" stroke-width="2" stroke-linejoin="round"/>
<polygon points="1198.1,450.0 1267.6,480.1 1295.1,410.1 1220.5,382.3" fill="#606060" stroke="#606060" stroke-width="2" stroke-linejoin="round"/>
<polygon points="1248.4,364.5 1321.6,390.2 1295.1,410.1 1220.5,382.3" fill="#606060" stroke="#606060" stroke-width="2" stroke-linejoin="round"/>
<polygon points="1293.8,458.6 1267.6,480.1 1295.1,410.1 1321.6,390.2" fill="#606060" stroke="#606060" stroke-width="2" stroke-linejoin="round"/>
<polygon points="1240.8,105.7 1225.6,109.8 1242.3,50.1 1257.7,47.2" fill="#606060" stroke="#606060" stroke-width="2" stroke-linejoin="round"/>
<polygon points="1240.8,105.7 1297.2,114.1 1316.9,53.2 1257.7,47.2" fill="#606060" stroke="#606060" stroke-width="2" stroke-linejoin="round"/>
<polygon points="1225.6,109.8 1282.6,118.5 1302.2,56.4 1242.3,50.1" fill="#606060" stroke="#606060" stroke-width="2" stroke-linejoin="round"/>
<polygon points="1257.7,47.2 1316.9,53.2 1302.2,56.4 1242.3,50.1" fill="#606060" stroke="#606060" stroke-width="2" stroke-linejoin="round"/>
<polygon points="1297.2,114.1 1282.6,118.5 1302.2,56.4 1316.9,53.2" fill="#606060" stroke="#606060" stroke-width="2" stroke-linejoin="round"/>
<polygon points="1347.3,480.5 1315.6,510.0 1360.5,408.5 1392.2,382.1" fill="#c8c8c8" stroke="#606060" stroke-width="2" stroke-linejoin="round"/>
<polygon points="1347.3,480.5 1574.3,573.5 1648.1,465.9 1392.2,382.1" fill="#c8c8c8" stroke="#606060" stroke-width="2" stroke-linejoin="round"/>
<polygon points="1315.6,510.0 1551.0,613.9 1627.6,503.0 1360.5,408.5" fill="#c8c8c8" stroke="#606060" stroke-width="2" stroke-linejoin="round"/>
<polygon points="1392.2,382.1 1648.1,465.9 1627.6,503.0 1360.5,408.5" fill="#c8c8c8" stroke="#606060" stroke-width="2" stroke-linejoin="round"/>
<polygon points="1574.3,573.5 1551.0,613.9 1627.6,503.0 1648.1,465.9" fill="#c8c8c8" stroke="#606060" stroke-width="2" stroke-linejoin="round"/>
<polygon points="1461.4,539.1 1418.3,593.7 1479.9,484.3 1521.2,434.6" fill="#c8c8c8" stroke="#606060" stroke-width="2" stroke-linejoin="round"/>
<polygon points="1461.4,539.1 1607.5,600.1 1687.9,490.3 1521.2,434.6" fill="#c8c8c8" stroke="#606060" stroke-width="2" stroke-linejoin="round"/>
<polygon points="1521.2,434.6 1687.9,490.3 1659.5,551.9 1479.9,484.3" fill="#c8c8c8" stroke="#606060" stroke-width="2" stroke-linejoin="round"/>
<polygon points="1418.3,593.7 1574.1,666.5 1659.5,551.9 1479.9,484.3" fill="#c8c8c8" stroke="#606060" stroke-width="2" stroke-linejoin="round"/>
<polygon points="1607.5,600.1 1574.1,666.5 1659.5,551.9 1687.9,490.3" fill="#c8c8c8" stroke="#606060" stroke-width="2" stroke-linejoin="round"/>
<polygon points="1330.5,545.5 1280.4,596.2 1336.9,468.9 1387.5,423.6" fill="#bfe3cf" stroke="#2e8b57" stroke-width="3" stroke-linejoin="round"/>
<polygon points="1330.5,545.5 1466.5,608.4 1545.2,480.0 1387.5,423.6" fill="#bfe3cf" stroke="#2e8b57" stroke-width="3" stroke-linejoin="round"/>
<polygon points="1280.4,596.2 1423.1,670.2 1504.3,536.6 1336.9,468.9" fill="#bfe3cf" stroke="#2e8b57" stroke-width="3" stroke-linejoin="round"/>
<polygon points="1466.5,608.4 1423.1,670.2 1504.3,536.6 1545.2,480.0" fill="#bfe3cf" stroke="#2e8b57" stroke-width="3" stroke-linejoin="round"/>
<polygon points="1387.5,423.6 1545.2,480.0 1504.3,536.6 1336.9,468.9" fill="#bfe3cf" stroke="#2e8b57" stroke-width="3" stroke-linejoin="round"/>
<polygon points="280.8,503.1 183.1,537.4 127.7,422.7 237.5,392.3" fill="#9d9d9d" stroke="#606060" stroke-width="2" stroke-linejoin="round"/>
<polygon points="280.8,503.1 355.2,643.9 308.7,519.3 237.5,392.3" fill="#9d9d9d" stroke="#606060" stroke-width="2" stroke-linejoin="round"/>
<polygon points="183.1,537.4 237.8,697.4 173.0,569.0 127.7,422.7" fill="#9d9d9d" stroke="#606060" stroke-width="2" stroke-linejoin="round"/>
<polygon points="237.5,392.3 308.7,519.3 173.0,569.0 127.7,422.7" fill="#9d9d9d" stroke="#606060" stroke-width="2" stroke-linejoin="round"/>
<polygon points="355.2,643.9 237.8,697.4 173.0,569.0 308.7,519.3" fill="#9d9d9d" stroke="#606060" stroke-width="2" stroke-linejoin="round"/>
<polygon points="1411.9,655.1 1379.5,699.3 1454.4,570.9 1485.7,529.7" fill="#606060" stroke="#606060" stroke-width="2" stroke-linejoin="round"/>
<polygon points="1411.9,655.1 1545.4,723.5 1643.8,593.6 1485.7,529.7" fill="#606060" stroke="#606060" stroke-width="2" stroke-linejoin="round"/>
<polygon points="1379.5,699.3 1518.6,776.6 1620.8,644.2 1454.4,570.9" fill="#606060" stroke="#606060" stroke-width="2" stroke-linejoin="round"/>
<polygon points="1545.4,723.5 1518.6,776.6 1620.8,644.2 1643.8,593.6" fill="#606060" stroke="#606060" stroke-width="2" stroke-linejoin="round"/>
<polygon points="1485.7,529.7 1643.8,593.6 1620.8,644.2 1454.4,570.9" fill="#606060" stroke="#606060" stroke-width="2" stroke-linejoin="round"/>
<polygon points="1581.9,576.6 1613.0,589.3 1894.6,203.0 1846.3,195.8" fill="#f3c9c4" stroke="#c0392b" stroke-width="3" stroke-linejoin="round"/>
<polygon points="1581.9,576.6 1550.7,632.2 1834.2,227.8 1846.3,195.8" fill="#f3c9c4" stroke="#c0392b" stroke-width="3" stroke-linejoin="round"/>
<polygon points="1613.0,589.3 1583.8,647.2 1887.8,236.8 1894.6,203.0" fill="#f3c9c4" stroke="#c0392b" stroke-width="3" stroke-linejoin="round"/>
<polygon points="1550.7,632.2 1583.8,647.2 1887.8,236.8 1834.2,227.8" fill="#f3c9c4" stroke="#c0392b" stroke-width="3" stroke-linejoin="round"/>
<polygon points="1846.3,195.8 1894.6,203.0 1887.8,236.8 1834.2,227.8" fill="#f3c9c4" stroke="#c0392b" stroke-width="3" stroke-linejoin="round"/>
<polygon points="700.6,734.3 607.3,795.2 591.1,698.8 694.3,639.6" fill="#bfe3cf" stroke="#2e8b57" stroke-width="3" stroke-linejoin="round"/>
<polygon points="700.6,734.3 767.9,809.8 767.9,713.1 694.3,639.6" fill="#bfe3cf" stroke="#2e8b57" stroke-width="3" stroke-linejoin="round"/>
<polygon points="607.3,795.2 670.9,883.0 660.0,785.7 591.1,698.8" fill="#bfe3cf" stroke="#2e8b57" stroke-width="3" stroke-linejoin="round"/>
<polygon points="767.9,809.8 670.9,883.0 660.0,785.7 767.9,713.1" fill="#bfe3cf" stroke="#2e8b57" stroke-width="3" stroke-linejoin="round"/>
<polygon points="694.3,639.6 767.9,713.1 660.0,785.7 591.1,698.8" fill="#bfe3cf" stroke="#2e8b57" stroke-width="3" stroke-linejoin="round"/>
<polygon points="1705.5,431.2 1738.4,440.9 1830.7,316.5 1792.9,308.4" fill="#9d9d9d" stroke="#606060" stroke-width="2" stroke-linejoin="round"/>
<polygon points="1705.5,431.2 1682.2,479.8 1776.3,349.3 1792.9,308.4" fill="#9d9d9d" stroke="#606060" stroke-width="2" stroke-linejoin="round"/>
<polygon points="1738.4,440.9 1717.8,491.5 1817.7,359.2 1830.7,316.5" fill="#9d9d9d" stroke="#606060" stroke-width="2" stroke-linejoin="round"/>
<polygon points="1792.9,308.4 1830.7,316.5 1817.7,359.2 1776.3,349.3" fill="#9d9d9d" stroke="#606060" stroke-width="2" stroke-linejoin="round"/>
<polygon points="1682.2,479.8 1717.8,491.5 1817.7,359.2 1776.3,349.3" fill="#9d9d9d" stroke="#606060" stroke-width="2" stroke-linejoin="round"/>
<polygon points="1208.1,933.6 1371.7,1068.0 1523.1,897.2 1302.8,758.1" fill="#9d9d9d" stroke="#606060" stroke-width="2" stroke-linejoin="round"/>
<polygon points="1208.1,933.6 1070.9,1121.0 1151.4,954.4 1302.8,758.1" fill="#9d9d9d" stroke="#606060" stroke-width="2" stroke-linejoin="round"/>
<polygon points="1371.7,1068.0 1247.5,1314.3 1401.8,1174.5 1523.1,897.2" fill="#9d9d9d" stroke="#606060" stroke-width="2" stroke-linejoin="round"/>
<polygon points="1070.9,1121.0 1247.5,1314.3 1401.8,1174.5 1151.4,954.4" fill="#9d9d9d" stroke="#606060" stroke-width="2" stroke-linejoin="round"/>
<polygon points="1302.8,758.1 1523.1,897.2 1401.8,1174.5 1151.4,954.4" fill="#9d9d9d" stroke="#606060" stroke-width="2" stroke-linejoin="round"/>
<polygon points="1385.2,756.9 1495.5,822.4 1919.3,282.8 1705.2,242.6" fill="#c8c8c8" stroke="#606060" stroke-width="2" stroke-linejoin="round"/>
<polygon points="1385.2,756.9 1274.6,920.8 1623.9,349.9 1705.2,242.6" fill="#c8c8c8" stroke="#606060" stroke-width="2" stroke-linejoin="round"/>
<polygon points="1495.5,822.4 1397.9,1015.8 1906.7,424.0 1919.3,282.8" fill="#c8c8c8" stroke="#606060" stroke-width="2" stroke-linejoin="round"/>
<polygon points="1274.6,920.8 1397.9,1015.8 1906.7,424.0 1623.9,349.9" fill="#c8c8c8" stroke="#606060" stroke-width="2" stroke-linejoin="round"/>
<polygon points="1705.2,242.6 1919.3,282.8 1906.7,424.0 1623.9,349.9" fill="#c8c8c8" stroke="#606060" stroke-width="2" stroke-linejoin="round"/>
<polygon points="134.4,382.6 122.3,385.7 -56.2,8.9 -39.3,8.1" fill="#c8c8c8" stroke="#606060" stroke-width="2" stroke-linejoin="round"/>
<polygon points="134.4,382.6 430.8,1227.7 -86.9,428.1 -39.3,8.1" fill="#c8c8c8" stroke="#606060" stroke-width="2" stroke-linejoin="round"/>
<polygon points="122.3,385.7 401.9,1252.6 -187.8,453.4 -56.2,8.9" fill="#c8c8c8" stroke="#606060" stroke-width="2" stroke-linejoin="round"/>
<polygon points="-39.3,8.1 -86.9,428.1 -187.8,453.4 -56.2,8.9" fill="#c8c8c8" stroke="#606060" stroke-width="2" stroke-linejoin="round"/>
<polygon points="430.8,1227.7 401.9,1252.6 -187.8,453.4 -86.9,428.1" fill="#c8c8c8" stroke="#606060" stroke-width="2" stroke-linejoin="round"/>
<polygon points="1510.1,448.8 1832.7,560.3 2295.2,44.2 1758.0,14.7" fill="#606060" stroke="#606060" stroke-width="2" stroke-linejoin="round"/>
<polygon points="1510.1,448.8 1383.0,601.9 1675.5,56.3 1758.0,14.7" fill="#606060" stroke="#606060" stroke-width="2" stroke-linejoin="round"/>
<polygon points="1832.7,560.3 1788.5,798.6 2512.4,124.7 2295.2,44.2" fill="#606060" stroke="#606060" stroke-width="2" stroke-linejoin="round"/>
<polygon points="1383.0,601.9 1788.5,798.6 2512.4,124.7 1675.5,56.3" fill="#606060" stroke="#606060" stroke-width="2" stroke-linejoin="round"/>
<polygon points="1758.0,14.7 2295.2,44.2 2512.4,124.7 1675.5,56.3" fill="#606060" stroke="#606060" stroke-width="2" stroke-linejoin="round"/>
<polygon points="-20.8,-5.8 -63.9,-4.1 -78.5,-34.9 -34.3,-36.0" fill="#9d9d9d" stroke="#606060" stroke-width="2" stroke-linejoin="round"/>
<polygon points="-20.8,-5.8 10.7,290.8 -56.6,161.2 -34.3,-36.0" fill="#9d9d9d" stroke="#606060" stroke-width="2" stroke-linejoin="round"/>
<polygon points="-34.3,-36.0 -56.6,161.2 -311.8,192.2 -78.5,-34.9" fill="#9d9d9d" stroke="#606060" stroke-width="2" stroke-linejoin="round"/>
<polygon points="-63.9,-4.1 -213.5,334.0 -311.8,192.2 -78.5,-34.9" fill="#9d9d9d" stroke="#606060" stroke-width="2" stroke-linejoin="round"/>
<polygon points="10.7,290.8 -213.5,334.0 -311.8,192.2 -56.6,161.2" fill="#9d9d9d" stroke="#606060" stroke-width="2" stroke-linejoin="round"/>
<polygon points="430.8,1227.7 401.9,1252.6 -187.8,453.4 -86.9,428.1" fill="#c8c8c8" stroke="#606060" stroke-width="2" stroke-linejoin="round"/>
<polygon points="430.8,1227.7 812.4,2315.9 1169.0,6867.6 -406.1,3247.5 -86.9,428.1" fill="#c8c8c8" stroke="#606060" stroke-width="2" stroke-linejoin="round"/>
<polygon points="401.9,1252.6 772.3,2400.5 805.1,7430.5 -1014.8,3247.5 -187.8,453.4" fill="#c8c8c8" stroke="#606060" stroke-width="2" stroke-linejoin="round"/>
<polygon points="812.4,2315.9 772.3,2400.5 805.1,7430.5 1169.0,6867.6" fill="#c8c8c8" stroke="#606060" stroke-width="2" stroke-linejoin="round"/>
<polygon points="-86.9,428.1 -406.1,3247.5 -1014.8,3247.5 -187.8,453.4" fill="#c8c8c8" stroke="#606060" stroke-width="2" stroke-linejoin="round"/>
<polygon points="1190.0,1413.1 1222.4,1452.9 2332.4,730.4 2134.5,662.2" fill="#c8c8c8" stroke="#606060" stroke-width="2" stroke-linejoin="round"/>
<polygon points="1190.0,1413.1 739.3,2298.1 506.6,6744.4 2767.1,3247.5 2134.5,662.2" fill="#c8c8c8" stroke="#606060" stroke-width="2" stroke-linejoin="round"/>
<polygon points="1222.4,1452.9 772.3,2400.5 805.1,7430.5 3509.1,3247.5 2332.4,730.4" fill="#c8c8c8" stroke="#606060" stroke-width="2" stroke-linejoin="round"/>
<polygon points="739.3,2298.1 772.3,2400.5 805.1,7430.5 506.6,6744.4" fill="#c8c8c8" stroke="#606060" stroke-width="2" stroke-linejoin="round"/>
<polygon points="2134.5,662.2 2332.4,730.4 3509.1,3247.5 2767.1,3247.5" fill="#c8c8c8" stroke="#606060" stroke-width="2" stroke-linejoin="round"/>
<path d="M699 215L685 -106" stroke="#b4b4b4" stroke-width="4"/>
<path d="M1613 589L2155 -154" stroke="#b4b4b4" stroke-width="4"/>
<path d="M120 353L-100 -120" stroke="#b4b4b4" stroke-width="4"/>
</g></svg>